<?xml version="1.0" standalone="no"?><!DOCTYPE svg PUBLIC "-//W3C//DTD SVG 1.1//EN" "http://www.w3.org/Graphics/SVG/1.1/DTD/svg11.dtd"><svg t="1734000409931" class="icon" viewBox="0 0 1024 1024" version="1.1" xmlns="http://www.w3.org/2000/svg" p-id="1907" xmlns:xlink="http://www.w3.org/1999/xlink" width="200" height="200"><path d="M0 0h1024v1024H0z" fill="#C9F4EB" p-id="1908"></path><path d="M512 840.1l-104.6 29.4c-16.6 4.7-34.3-0.9-45.3-14.2l-64.4-77.9L197.3 747c-18.1-5.5-30.6-22.1-30.9-41.1l-1.2-92.5-58.7-74.5c-12.4-15.8-12.4-38.1 0-53.9l58.7-74.5 1.2-92.5c0.2-19 12.7-35.6 30.9-41.1l100.4-30.5 64.4-77.9c11-13.3 28.7-18.8 45.3-14.2L512 183.9l104.6-29.4c16.6-4.7 34.3 0.9 45.3 14.2l64.4 77.9L826.7 277c18.1 5.5 30.6 22.1 30.9 41.1l1.2 92.5 58.7 74.5c12.4 15.8 12.4 38.1 0 53.9l-58.7 74.5-1.2 92.5c-0.2 19-12.7 35.6-30.9 41.1l-100.4 30.5-64.4 77.9c-11 13.3-28.7 18.8-45.3 14.2L512 840.1z" fill="#FAC655" p-id="1909"></path><path d="M395.7 892.5c-19 0-37.5-8.4-50-23.5l-60.3-73-94.3-28.6c-27.1-8.2-45.6-32.9-46-61.2L144 621l-54.2-68.8c-18.6-23.6-18.6-56.6 0-80.3l54.2-68.8 1.1-85.2c0.4-28.4 18.8-53 46-61.2l94.3-28.6 60.3-73c16.3-19.8 42.8-28 67.5-21.1l98.8 27.8 98.8-27.8c24.7-6.9 51.2 1.3 67.5 21.1l60.3 73 94.3 28.6c27.1 8.2 45.6 32.9 46 61.2l1.1 85.2 54.2 68.8c18.6 23.6 18.6 56.6 0 80.3L880 620.9l-1.1 85.2c-0.4 28.4-18.8 53-46 61.2L738.7 796l-60.3 73c-16.3 19.8-42.8 28-67.5 21.1L512 862.3l-98.8 27.8c-5.8 1.6-11.7 2.4-17.5 2.4z m-0.1-718.3c-6.5 0-12.8 2.9-17.1 8L310 265.1l-106.6 32.4c-9.3 2.8-15.6 11.2-15.7 20.9l-1.3 99.7-63.2 80.2c-6.4 8.1-6.4 19.4 0 27.5l63.2 80.2 1.3 99.7c0.1 9.7 6.4 18.1 15.7 20.9L310 758.9l68.5 82.9c5.6 6.8 14.7 9.6 23.1 7.2L512 818l110.4 31c8.4 2.4 17.5-0.5 23.1-7.2l68.5-82.9 106.6-32.4c9.3-2.8 15.6-11.2 15.7-20.9l1.3-99.7 63.2-80.2c6.4-8.1 6.4-19.4 0-27.5L837.6 418l-1.3-99.7c-0.1-9.7-6.4-18.1-15.7-20.9L714 265.1l-68.5-82.9c-5.6-6.8-14.7-9.6-23.1-7.2L512 206l-110.4-31c-1.9-0.6-4-0.8-6-0.8z" fill="#333333" p-id="1910"></path><path d="M256 448a256 106.7 0 1 0 512 0 256 106.7 0 1 0-512 0Z" fill="#B0804B" p-id="1911"></path><path d="M693.9 378.5c-48.4-31.7-111.1-50.8-179.6-50.8-69.1 0-132.3 19.5-180.9 51.6-2.5 1.7-5 3.3-7.4 5.1m-68.2 75.3c-13.4 25.1-20.9 52.5-20.9 81.3 0 117.8 124.2 213.3 277.3 213.3S791.6 658.8 791.6 541c0-35.5-11.3-69-31.2-98.4" fill="#B0804B" p-id="1912"></path><path d="M514.2 775.7c-78.8 0-153-23.8-209.1-66.9-27.8-21.4-49.7-46.4-65.1-74.4-16.2-29.5-24.4-60.9-24.4-93.3 0-31.7 7.9-62.5 23.4-91.4 5.6-10.4 18.5-14.3 28.9-8.7 10.4 5.6 14.3 18.5 8.7 28.9-12.2 22.7-18.3 46.6-18.3 71.3 0 105.9 114.8 192 256 192s256-86.1 256-192c0-30.4-9.3-59.5-27.5-86.5-6.6-9.8-4.1-23 5.7-29.6 9.8-6.6 23-4.1 29.6 5.7 22.8 33.7 34.9 71.9 34.9 110.4 0 32.4-8.2 63.8-24.4 93.3-15.4 28-37.3 53-65.1 74.4-56.3 43-130.5 66.8-209.3 66.8zM326 405.7c-6.7 0-13.2-3.1-17.4-9-6.8-9.6-4.6-22.9 5-29.8 2.6-1.9 5.3-3.7 8-5.5 53.7-35.6 122.1-55.2 192.7-55.2 69.9 0 137.9 19.3 191.3 54.3 9.9 6.5 12.6 19.7 6.2 29.5-6.5 9.9-19.7 12.6-29.5 6.2-46.6-30.5-106.3-47.3-168-47.3C452 348.9 392 366 345.2 397c-2.3 1.5-4.6 3.1-6.8 4.7-3.8 2.7-8.2 4-12.4 4z" fill="#333333" p-id="1913"></path><path d="M392.1 486.8m-42.7 0a42.7 42.7 0 1 0 85.4 0 42.7 42.7 0 1 0-85.4 0Z" fill="#333333" p-id="1914"></path><path d="M403 486.4m-21.3 0a21.3 21.3 0 1 0 42.6 0 21.3 21.3 0 1 0-42.6 0Z" fill="#FFFFFF" p-id="1915"></path><path d="M637 482.1m-42.7 0a42.7 42.7 0 1 0 85.4 0 42.7 42.7 0 1 0-85.4 0Z" fill="#333333" p-id="1916"></path><path d="M647.9 481.7m-21.3 0a21.3 21.3 0 1 0 42.6 0 21.3 21.3 0 1 0-42.6 0Z" fill="#FFFFFF" p-id="1917"></path><path d="M518.1 655.4c-11.4 0-22.1-4.4-30.2-12.5l-12.5-12.5c-4.7-4.7-7.3-11-7.3-17.7 0-6.7 2.6-13 7.3-17.7 4.7-4.7 11-7.3 17.7-7.3h50c6.7 0 13 2.6 17.7 7.3 4.7 4.7 7.3 11 7.3 17.7s-2.6 13-7.3 17.7l-12.5 12.5c-8 8.1-18.8 12.5-30.2 12.5z m16.5-51.2z m-32.9 0z" fill="#333333" p-id="1918"></path><path d="M519.4 750.9c-12 0-21.8-9.8-21.8-21.8v-84.3c0-12 9.8-21.8 21.8-21.8s21.8 9.8 21.8 21.8V729c0.1 12.1-9.7 21.9-21.8 21.9z" fill="#333333" p-id="1919"></path><path d="M323.4 386.5c-1.2-35.3-30.9-63-66.2-61.7s-63 30.9-61.7 66.2 30.9 63 66.2 61.7" fill="#B0804B" p-id="1920"></path><path d="M259.4 474.1c-45.7 0-83.6-36.3-85.2-82.4-0.8-22.8 7.3-44.5 22.9-61.2 15.5-16.7 36.7-26.3 59.4-27.1 22.8-0.8 44.5 7.3 61.2 22.9 16.7 15.5 26.3 36.7 27.1 59.4 0.4 11.8-8.8 21.7-20.6 22.1-11.8 0.4-21.7-8.8-22.1-20.6-0.4-11.4-5.2-21.9-13.5-29.7-8.3-7.8-19.2-11.8-30.6-11.4-11.4 0.4-21.9 5.2-29.7 13.5s-11.8 19.2-11.4 30.6c0.8 23.5 20.6 42 44.1 41.2 11.8-0.4 21.7 8.8 22.1 20.6 0.4 11.8-8.8 21.7-20.6 22.1h-3.1z" fill="#333333" p-id="1921"></path><path d="M269.9 418.8c-11.8 0.8-21.9-8-22.8-19.8-0.8-11.8 8-21.9 19.8-22.8 11.8-0.8 21.9 8 22.8 19.8" fill="#F0B26E" p-id="1922"></path><path d="M760 442.3c35.3-0.6 63.5-29.8 62.9-65.1s-29.8-63.5-65.1-62.9-63.5 29.8-62.9 65.1" fill="#B0804B" p-id="1923"></path><path d="M759.9 463.6c-11.6 0-21.1-9.3-21.3-21-0.2-11.8 9.2-21.5 21-21.7 11.4-0.2 22-4.8 29.9-13 7.9-8.2 12.2-19 12-30.4-0.4-23.5-19.9-42.3-43.4-41.9-11.4 0.2-22 4.8-29.9 13-7.9 8.2-12.2 19-12 30.4 0.2 11.8-9.2 21.5-21 21.7h-0.4c-11.6 0-21.1-9.3-21.3-21-0.4-22.8 8.1-44.4 23.9-60.8 15.8-16.4 37.1-25.6 59.9-26h1.5c46.4 0 84.5 37.3 85.3 83.8 0.4 22.8-8.1 44.4-23.9 60.8-15.8 16.4-37.1 25.6-59.9 26-0.1 0.1-0.2 0.1-0.4 0.1z" fill="#333333" p-id="1924"></path><path d="M750.9 408.3c11.8-0.4 21-10.3 20.6-22.1s-10.3-21-22.1-20.6c-11.8 0.4-21 10.3-20.6 22.1" fill="#F0B26E" p-id="1925"></path><path d="M857.287 128.41c4.333-4.595 12.911-7.113 17.209-6.932 6.663 0.404 12.89 4.054 15.734 9.984 2.638 5.323 2.884 11.372 0.713 16.754-3.6 9.012-10.223 16.392-20.093 22.164-8.682 5.141-17.106 7.821-25.214 8.17-7.126 0.28-13.917-3.576-17.29-9.805" fill="#FF6E6E" p-id="1926"></path><path d="M844.864 187.101c-9.996-0.02-19.366-5.559-24.029-14.386-2.194-4.204-0.63-9.38 3.575-11.575 4.204-2.195 9.381-0.63 11.576 3.574 1.741 3.401 5.449 5.495 9.345 5.317 6.715-0.322 13.832-2.627 21.258-6.948 8.229-4.773 13.673-10.667 16.529-17.928 1.256-3.16 1.07-6.74-0.459-9.851-1.468-2.982-4.8-4.94-8.619-5.265-2.084-0.12-8.142 1.612-10.552 4.14-3.256 3.391-8.639 3.56-12.03 0.304-3.39-3.256-3.56-8.638-0.304-12.03 6.025-6.32 17.099-9.845 23.89-9.501 9.92 0.524 18.718 6.174 22.945 14.736a29.298 29.298 0 0 1 1.06 23.691c-4.377 10.858-12.402 19.75-23.878 26.427-9.87 5.773-19.602 8.828-29.136 9.295-0.41-0.042-0.76 0.043-1.17 0z" fill="#333333" p-id="1927"></path><path d="M857.193 128.376c-0.203-6.459-5.883-13.953-9.479-16.645-5.364-3.975-12.48-5.182-18.47-2.466-5.35 2.416-9.426 6.891-11.315 12.376-3.036 9.217-2.74 19.222 1.11 29.988 3.38 9.425 8.111 16.893 14.099 22.371 5.278 4.795 12.959 6.207 19.546 3.603" fill="#FF6E6E" p-id="1928"></path><path d="M845.898 187.477c-6.707 0.007-13.344-2.515-18.47-7.148-7.037-6.392-12.494-15.083-16.344-25.849-4.465-12.586-4.931-24.461-1.211-35.558 2.582-7.68 8.42-14.07 15.947-17.501 8.741-3.843 18.985-2.455 27.048 3.46 5.082 3.87 12.504 13.596 12.877 23.096 0.187 4.75-3.463 8.637-8.213 8.823-4.656 0.221-8.636-3.462-8.823-8.213-0.076-3.007-3.85-8.425-6.02-10.066-3.007-2.265-6.945-2.847-9.987-1.506-3.17 1.4-5.615 4.022-6.683 7.251-2.48 7.398-2.098 15.412 1.137 24.358 2.911 8.083 6.848 14.518 11.819 18.987 2.87 2.641 7.056 3.42 10.576 1.934 4.384-1.81 9.355 0.32 11.165 4.703 1.81 4.383-0.319 9.355-4.702 11.165-3.298 1.46-6.699 2.031-10.116 2.064z" fill="#333333" p-id="1929"></path><path d="M172.4 855.3c4.8 2.2 8.6 5.7 11 10.1 2.5 4.5 3.6 9.8 3 15.1-0.3 2.4-0.9 4.7-1.8 6.9 2.3 0.3 4.6 0.9 6.8 1.9 4.7 2.1 8.5 5.7 11 10.1 2.5 4.4 3.6 9.6 3 15-0.6 5.5-2.9 10.4-6.3 14.2-3.5 3.9-8.1 6.7-13.2 7.9-2.2 0.5-4.5 0.7-6.8 0.6 0.3 2.2 0.4 4.5 0.2 6.8-0.6 5.3-2.9 10.3-6.4 14.3-3.4 3.8-7.9 6.6-13.2 7.8-5.2 1.2-10.4 0.6-14.9-1.4-4.6-2.1-8.5-5.6-11.1-10.1-1.2-2.1-2.1-4.4-2.6-6.8-2.1 1.2-4.4 2.1-6.8 2.6-5.1 1.1-10.3 0.6-14.9-1.5-4.5-2-8.4-5.4-11-10.1-2.6-4.7-3.6-10-3-15 0.6-5.2 2.8-10.3 6.3-14.3 1.5-1.7 3.3-3.2 5.2-4.5-1.6-1.6-3-3.4-4.1-5.4-2.6-4.6-3.6-9.9-3-15.1 0.6-5.1 2.7-10.1 6.3-14.2 3.6-4.1 8.3-6.7 13.2-7.8 5-1.1 10.2-0.7 14.9 1.4 2.2 1 4.2 2.3 5.9 3.8 1-2.1 2.3-4.1 3.9-5.9 3.5-4 8.2-6.7 13.2-7.8 5.1-1.1 10.3-0.7 15.2 1.4z" fill="#FF9B3E" p-id="1930"></path><path d="M154.4 975.1c-4.5 0-8.9-0.9-13-2.8-6.3-2.8-11.6-7.7-15-13.7-6.8 1.5-13.9 0.8-20.2-2-6.3-2.8-11.5-7.6-15-13.7-3.4-6.1-4.8-13.1-4.1-20.2 0.8-7.1 3.7-13.7 8.4-19-3.4-6.1-4.8-13.1-4-20.2 0.8-7.1 3.7-13.6 8.4-18.9 4.7-5.3 10.8-9 17.7-10.5 6.8-1.5 14-0.8 20.3 2 4.7-5.2 11-9 17.8-10.5 6.8-1.5 13.8-0.8 20.2 2 6.4 2.8 11.6 7.6 15 13.7 3.4 6.1 4.9 13.2 4.1 20.2 6.3 2.8 11.6 7.7 15 13.7 3.4 6.1 4.8 13.1 4 20.2-0.8 7.1-3.7 13.6-8.4 18.9-4.8 5.4-10.9 9-17.7 10.5-0.8 7.1-3.7 13.6-8.5 19-4.7 5.3-10.8 8.9-17.7 10.5-2.5 0.5-4.9 0.8-7.3 0.8z m-17.2-40.8l2.4 11.6c0.3 1.5 0.9 3 1.6 4.4 1.6 2.9 4.1 5.2 7.1 6.5 3 1.3 6.3 1.6 9.5 0.9 3.3-0.8 6.3-2.5 8.7-5.2 2.4-2.7 3.9-6.1 4.3-9.6 0.2-1.5 0.1-3-0.1-4.6l-1.6-10.4 10.5 0.6c1.5 0.1 3 0 4.4-0.4 3.3-0.7 6.4-2.6 8.7-5.2 2.4-2.7 3.8-6 4.2-9.5 0.4-3.5-0.3-6.9-2-9.9-1.6-2.9-4.1-5.2-7.1-6.5-1.4-0.6-2.8-1-4.3-1.2l-11.2-1.3 4.3-10.4c0.6-1.5 1-3 1.2-4.6 0.4-3.4-0.3-7-2-10-1.6-2.9-4.1-5.1-7.1-6.4-3-1.3-6.3-1.7-9.5-0.9-3.3 0.7-6.4 2.6-8.7 5.2-1 1.2-1.9 2.5-2.6 3.9l-4.8 10.2-8.5-7.4c-1.1-1-2.4-1.8-3.8-2.4-2.9-1.3-6.3-1.6-9.6-0.9-3.3 0.7-6.3 2.5-8.7 5.2-2.4 2.7-3.9 6-4.2 9.5-0.4 3.5 0.3 7 2 10 0.7 1.3 1.6 2.5 2.7 3.5l7.5 7.4-8.8 5.8c-1.3 0.8-2.4 1.8-3.5 3-2.3 2.6-3.8 6-4.2 9.6-0.4 3.5 0.3 6.9 2 9.9 1.6 2.9 4.1 5.1 7 6.5 3 1.3 6.4 1.7 9.6 0.9 1.5-0.3 3-0.9 4.3-1.7l10.3-6.1z" fill="#333333" p-id="1931"></path><path d="M890.5 875c-10.3 5.4-22.9 1.4-28.3-8.8-2.1-4.1-2.9-8.8-2.1-13.3-8.3-8.1-8.5-21.4-0.4-29.7 3.2-3.3 7.4-5.5 12-6.1 5.1-10.4 17.7-14.7 28.1-9.5 4.1 2 7.5 5.4 9.5 9.5 11.5 1.7 19.4 12.3 17.7 23.8-0.7 4.6-2.8 8.8-6.1 12 2 11.4-5.7 22.3-17.1 24.2-4.5 0.8-9.2 0.1-13.3-2.1z" fill="#71DA77" p-id="1932"></path><path d="M880.8 883.8c-2.7 0-5.5-0.4-8.2-1.2-7-2.2-12.7-6.9-16.1-13.4-2.3-4.3-3.3-9.2-3.1-14.1-3.9-4.8-6-10.6-6.1-16.8-0.1-7.3 2.7-14.2 7.8-19.5 3.4-3.5 7.8-6 12.5-7.3 3.3-5.1 8.3-9 14.1-11 6.9-2.3 14.4-1.9 20.9 1.4 4.4 2.2 8.1 5.5 10.8 9.6 5.9 1.6 11.1 5.1 14.8 10.1 4.4 5.9 6.2 13.1 5.2 20.3-0.7 4.8-2.7 9.4-5.8 13.2 0.7 13.6-8.9 26-22.7 28.4-4.8 0.8-9.8 0.3-14.4-1.4-3.1 1.1-6.4 1.7-9.7 1.7z m9.7-72c-1.6 0-3.2 0.3-4.7 0.8-3.7 1.2-6.7 3.9-8.4 7.4l-1.5 3-3.3 0.5c-3.2 0.5-6.1 2-8.3 4.2-2.7 2.8-4.2 6.5-4.1 10.4 0 3.9 1.6 7.5 4.4 10.2l2.4 2.3-0.6 3.3c-0.5 3.1 0 6.4 1.5 9.2 3.7 7.1 12.6 9.9 19.7 6.1l3-1.6 3 1.6c2.8 1.5 6.1 2 9.2 1.5 7.9-1.4 13.3-8.9 11.9-16.8l-0.6-3.3 2.4-2.3c2.3-2.2 3.8-5.2 4.2-8.3 0.6-3.9-0.4-7.7-2.7-10.8-2.3-3.1-5.7-5.1-9.6-5.7l-3.3-0.5-1.5-3c-1.4-2.9-3.8-5.2-6.6-6.6-2.1-1.1-4.3-1.6-6.5-1.6z" fill="#333333" p-id="1933"></path><path d="M119.214007 132.700636a36.2 32.6 18 1 0-20.147908 62.008885 36.2 32.6 18 1 0 20.147908-62.008885Z" fill="#DD1010" p-id="1934"></path><path d="M173.519321 147.653563a36.2 32.6 10.998 1 0-12.438512 64.002526 36.2 32.6 10.998 1 0 12.438512-64.002526Z" fill="#DD1010" p-id="1935"></path><path d="M168.326898 220.352333c-1.485988 0.042904-3.005277-0.135304-4.460363-0.187505-23.388483-2.447214-40.434916-23.442431-37.987702-46.830913l12.722552 1.294859c-1.741581 16.362668 10.197342 31.07192 26.56001 32.813502 7.94357 0.793536 15.737127-1.51091 21.866182-6.45911 6.159957-5.043306 10.058678-12.188232 10.947319-20.1009l12.722553 1.29486c-2.269005 21.869193-20.834379 38.233083-42.370551 38.175207z" fill="#333333" p-id="1936"></path><path d="M132.225116 180.33782c-0.221113 0.033302-0.411324-0.028501-0.727543-0.026101-3.54501-0.41582-6.098764-3.558802-5.713846-7.008706 2.002893-19.432149 19.510408-33.511103 38.942557-31.50821 3.03858 0.356417 6.07956 1.029053 8.966032 2.177217 3.266894 1.271771 4.907696 4.959286 3.73103 8.257082-1.271771 3.266894-4.959286 4.907696-8.257082 3.731031-1.776106-0.682238-3.740022-1.110061-5.765742-1.347672-12.406334-1.29726-23.532778 7.705085-24.830039 20.111419-0.292213 3.164587-3.088075 5.620836-6.345367 5.61394z" fill="#333333" p-id="1937"></path><path d="M204.416286 187.917073c-0.221113 0.033302-0.411324-0.028501-0.727543-0.026101-3.54501-0.41582-6.098764-3.558802-5.713847-7.008706 0.586827-6.012956-1.070779-11.914002-4.90141-16.628475-3.830632-4.714473-9.197053-7.614737-15.179107-8.296669-1.835509-0.175808-3.637715-0.130503-5.501724 0.105013-3.506906 0.43773-6.719199-1.972908-7.15693-5.479814s1.972908-6.719199 5.479814-7.156929c2.843567-0.337824 5.720437-0.454534 8.568806-0.159921 9.367754 0.940843 17.84656 5.588406 23.78392 12.880029 5.93736 7.291622 8.696035 16.599668 7.660085 25.93652-0.354017 3.354798-3.149878 5.811047-6.312064 5.835053zM109.095282 203.630324c-4.427061 0.033608-8.828022-0.660327-13.107776-2.050904C73.542572 194.286619 61.310519 170.124109 68.572418 147.774281L80.745942 151.729699c-5.09878 15.692433 3.535451 32.482312 19.132777 37.55019 10.27141 3.337384 21.479168 0.880524 29.424528-6.421617l8.705026 9.452646c-7.976261 7.397247-18.38267 11.271089-28.912991 11.319406z" fill="#333333" p-id="1938"></path><path d="M74.581184 156.140567c-0.632437 0.004801-1.329079-0.116405-1.994818-0.332717-3.328698-1.081559-5.190612-4.735773-4.109053-8.064471 2.935661-9.035037 9.17392-16.260971 17.616412-20.562636 8.442493-4.301665 18.050258-5.070323 26.99019-2.165563 2.948275 0.957953 5.677838 2.265426 8.283794 3.953323 2.955477 1.906609 3.871136 5.884242 1.869422 8.808817-1.906609 2.955477-5.884242 3.871136-8.808818 1.869422-1.652499-1.062661-3.366801-1.93511-5.268914-2.553144-5.706339-1.854102-11.869002-1.332963-17.256416 1.332701-5.418316 2.76077-9.336241 7.375947-11.221245 13.177392-0.801044 2.788966-3.380593 4.579475-6.100554 4.536876z" fill="#333333" p-id="1939"></path><path d="M143.198537 159.509376c-2.624855-0.011697-5.0406-1.63779-6.00846-4.160337-2.38995-6.559584-7.613864-11.51647-14.176154-13.648687-1.711902-0.556231-3.485607-0.92225-5.321116-1.098058-3.480806-0.289813-6.160568-3.368591-5.870755-6.849397 0.289813-3.480806 3.368591-6.160568 6.849396-5.870755 2.87927 0.199508 5.634933 0.779439 8.392998 1.675588 10.366516 3.368285 18.458004 11.149534 22.267641 21.429936 1.227077 3.342796-0.484519 6.992513-3.827315 8.219589-0.789346 0.164111-1.578693 0.328221-2.306235 0.302121z" fill="#333333" p-id="1940"></path><path d="M120.260354 137.230692c-0.727543-0.026101-1.51929-0.178209-2.280135-0.425422-3.266894-1.271771-4.907696-4.959286-3.731031-8.257083C126.653078 96.197862 158.17831 74.897165 192.684247 75.489055c3.542609 0.099601 6.37928 3.01907 6.310581 6.466573-0.099601 3.542609-3.01907 6.37928-6.466574 6.310581-29.161121-0.537594-55.841072 17.500705-66.260051 44.712924-1.055459 2.601155-3.4781 4.232354-6.007849 4.251559z" fill="#333333" p-id="1941"></path><path d="M170.15992 153.54919c-3.162187 0.024006-5.963155-2.358131-6.367583-5.643925-3.168821-25.844121 5.747673-51.021018 24.393749-69.251318C190.760834 76.231001 194.840775 76.294899 197.294623 78.774542c2.453848 2.479643 2.38995 6.559584-0.089693 9.013432-15.821714 15.362727-23.281026 36.702096-20.585639 58.501979 0.43773 3.506906-2.068013 6.688297-5.574919 7.126028-0.34712 0.097506-0.663339 0.099907-0.884452 0.133209z" fill="#333333" p-id="1942"></path><path d="M190.464126 82.969099c-4.531464 2.94378 0.793274 21.181849 5.689273 28.76599s12.922977 11.033434 17.989371 7.737733 5.158489-11.992914 0.26249-19.577056-19.314565-19.839545-23.941134-16.926667z" fill="#6EC363" p-id="1943"></path><path d="M209.868428 127.126579c-6.735697 0.01951-14.13744-4.38324-19.06434-11.872276-2.879576-4.405456-5.716552-11.530873-7.252952-18.12856-2.32125-10.007087-1.16859-16.46707 3.488881-19.475054 4.657471-3.007984 10.993847-1.474901 19.168437 4.756156 5.406924 4.070033 10.761647 9.595152 13.546117 13.969707 6.943324 10.66772 6.026486 23.197661-2.092586 28.445581-2.391739 1.536094-5.042695 2.251939-7.793557 2.304446zM195.295921 90.427233c0.701748 4.959592 3.1037 13.100269 6.206789 17.788641 3.295701 5.066395 7.798969 6.739888 9.120846 5.907637 1.321877-0.832251 1.632989-5.673037-1.662712-10.739432-2.977082-4.752577-9.470672-10.332297-13.664923-12.956846z" fill="#333333" p-id="1944"></path></svg>