<?xml version="1.0" standalone="no"?><!DOCTYPE svg PUBLIC "-//W3C//DTD SVG 1.1//EN" "http://www.w3.org/Graphics/SVG/1.1/DTD/svg11.dtd"><svg t="1734000418769" class="icon" viewBox="0 0 1024 1024" version="1.1" xmlns="http://www.w3.org/2000/svg" p-id="2106" xmlns:xlink="http://www.w3.org/1999/xlink" width="200" height="200"><path d="M0 0h1024v1024H0z" fill="#F7B6B7" p-id="2107"></path><path d="M320 341.3h384c35.3 0 64 28.7 64 64s-28.7 64-64 64H320c-35.3 0-64-28.7-64-64s28.7-64 64-64z" fill="#EE8848" p-id="2108"></path><path d="M264.3 446.9c-5.4 20.8-8.3 42.6-8.3 65.1 0 141.4 114.6 298.7 256 298.7S768 653.4 768 512c0-25-3.6-49.1-10.2-71.9m-21.7-52C692.4 309.3 608.5 256 512 256c-97.4 0-182.1 54.4-225.4 134.5" fill="#EE8848" p-id="2109"></path><path d="M512 832c-37.7 0-74.7-9.9-110-29.5-32.4-17.9-61.9-43.1-87.6-74.7-24.4-30-44.5-65.3-58.3-102-14-37.5-21.5-76.9-21.5-113.8 0-23.9 3-47.6 9-70.5l41.3 10.8c-5.1 19.4-7.6 39.4-7.6 59.7 0 64.2 26.2 134.8 70.2 188.9 22 27 48 49.3 75.2 64.3 28.9 16 59 24.1 89.3 24.1 30.4 0 60.4-8.1 89.3-24.1 27.2-15.1 53.2-37.3 75.2-64.3 44-54.1 70.2-124.7 70.2-188.9 0-22.4-3.2-44.6-9.4-65.9l41-12c7.4 25.2 11.1 51.4 11.1 77.9 0 36.9-7.4 76.2-21.5 113.8-13.7 36.7-33.9 72-58.3 102-25.7 31.7-55.2 56.8-87.6 74.7-35.3 19.6-72.3 29.5-110 29.5zM305.4 400.6l-37.5-20.3c48.5-89.9 142.1-145.7 244.2-145.7 100.8 0 193.8 54.8 242.8 143.1l-37.3 20.7C676 323.7 597.3 277.3 512 277.3c-86.4 0-165.5 47.3-206.6 123.3z" fill="#333333" p-id="2110"></path><path d="M405.3 490.7m-21.3 0a21.3 21.3 0 1 0 42.6 0 21.3 21.3 0 1 0-42.6 0Z" fill="#333333" p-id="2111"></path><path d="M405.3 518.4c-15.3 0-27.7-12.4-27.7-27.7S390 463 405.3 463c15.3 0 27.7 12.4 27.7 27.7s-12.4 27.7-27.7 27.7z m0-42.7c-8.2 0-14.9 6.7-14.9 14.9s6.7 14.9 14.9 14.9 14.9-6.7 14.9-14.9-6.6-14.9-14.9-14.9z" fill="#333333" p-id="2112"></path><path d="M618.7 490.7m-21.3 0a21.3 21.3 0 1 0 42.6 0 21.3 21.3 0 1 0-42.6 0Z" fill="#333333" p-id="2113"></path><path d="M618.7 518.4c-15.3 0-27.7-12.4-27.7-27.7s12.4-27.7 27.7-27.7c15.3 0 27.7 12.4 27.7 27.7s-12.4 27.7-27.7 27.7z m0-42.7c-8.2 0-14.9 6.7-14.9 14.9s6.7 14.9 14.9 14.9 14.9-6.7 14.9-14.9-6.7-14.9-14.9-14.9zM303 377.4h-0.4c-53.9-0.9-105.1-22-144.1-59.5-39.2-37.7-62.3-88.3-65.2-142.6-0.6-11.8 8.4-21.8 20.2-22.4 11.8-0.6 21.8 8.4 22.4 20.2 2.3 43.4 20.8 84 52.1 114.1 31.2 30 72.1 46.9 115.3 47.6 11.8 0.2 21.2 9.9 21 21.7-0.2 11.6-9.7 20.9-21.3 20.9z" fill="#333333" p-id="2114"></path><path d="M191.6 337.9c-7.9 0-15.5-4.4-19.2-12-24.3-50-13.8-109.5 26.2-148.1 8.5-8.2 22-7.9 30.2 0.5 8.2 8.5 7.9 22-0.5 30.2-26.7 25.7-33.7 65.4-17.5 98.7 5.2 10.6 0.7 23.4-9.8 28.5-3.1 1.5-6.2 2.2-9.4 2.2zM269.5 364.5c-9.3 0-17.8-6.1-20.5-15.5-10.1-35.6-4.3-73.7 15.8-104.7 6.4-9.9 19.6-12.7 29.5-6.3 9.9 6.4 12.7 19.6 6.3 29.5a85.53 85.53 0 0 0-10.5 69.8c3.2 11.3-3.4 23.1-14.7 26.3-2 0.7-4 0.9-5.9 0.9zM729.2 379.8c-10.8 0-20.1-8.2-21.2-19.2-1.2-11.7 7.4-22.2 19.1-23.3 41.9-4.2 80.6-23.7 109.1-55 28.7-31.5 44.4-72.3 44.4-114.9 0-11.8 9.6-21.3 21.3-21.3s21.3 9.6 21.3 21.3c0 53.2-19.7 104.2-55.5 143.6-35.6 39.1-84 63.5-136.4 68.7-0.6 0.1-1.4 0.1-2.1 0.1z" fill="#333333" p-id="2115"></path><path d="M838.6 326.8c-2.8 0-5.6-0.5-8.3-1.7-10.9-4.6-15.9-17.1-11.3-28 14.4-34.1 5.3-73.3-22.6-97.7-8.9-7.7-9.8-21.2-2.1-30.1 7.7-8.9 21.2-9.8 30.1-2.1 42 36.5 55.6 95.3 33.9 146.5-3.5 8.2-11.4 13.1-19.7 13.1zM769.9 365.1c-1.6 0-3.2-0.2-4.8-0.5-11.5-2.6-18.7-14.1-16.1-25.5 5.5-24 0.3-49.3-14.2-69.2-6.9-9.5-4.8-22.9 4.7-29.8 9.5-6.9 22.9-4.8 29.8 4.7 21.7 29.9 29.5 67.7 21.2 103.7-2.1 9.9-10.9 16.6-20.6 16.6z" fill="#333333" p-id="2116"></path><path d="M192 469.3c39.3 0 74.8-21.3 106.7-64-31.8-42.7-67.4-64-106.7-64s-74.8 21.3-106.7 64c31.9 42.7 67.4 64 106.7 64z" fill="#FCBE85" p-id="2117"></path><path d="M192 490.7c-46.2 0-87.8-24.4-123.8-72.6l-9.5-12.8 9.5-12.8c36-48.1 77.6-72.5 123.8-72.5s87.8 24.4 123.8 72.6l9.5 12.8-9.5 12.8c-36 48-77.6 72.5-123.8 72.5z m-79.3-85.4C137.4 434 163.5 448 192 448s54.6-14 79.3-42.7c-24.8-28.7-50.9-42.7-79.3-42.7s-54.6 14.1-79.3 42.7z" fill="#333333" p-id="2118"></path><path d="M832 469.3c-39.3 0-74.8-21.3-106.7-64 31.8-42.7 67.4-64 106.7-64s74.8 21.3 106.7 64c-31.9 42.7-67.4 64-106.7 64z" fill="#FCBE85" p-id="2119"></path><path d="M832 490.7c-46.2 0-87.8-24.4-123.8-72.6l-9.5-12.8 9.5-12.8c36-48.1 77.6-72.5 123.8-72.5s87.8 24.4 123.8 72.6l9.5 12.8-9.5 12.8c-36 48-77.6 72.5-123.8 72.5z m-79.3-85.4C777.4 434 803.5 448 832 448s54.6-14 79.3-42.7c-24.8-28.7-50.9-42.7-79.3-42.7s-54.6 14.1-79.3 42.7z" fill="#333333" p-id="2120"></path><path d="M481.799239 670.193087a42.7 42.7 0 1 0 60.385865-60.387973 42.7 42.7 0 1 0-60.385865 60.387973Z" fill="#333333" p-id="2121"></path><path d="M512 704c-35.3 0-64-28.7-64-64s28.7-64 64-64 64 28.7 64 64-28.7 64-64 64z m0-85.3c-11.8 0-21.3 9.6-21.3 21.3s9.6 21.3 21.3 21.3c11.8 0 21.3-9.6 21.3-21.3s-9.5-21.3-21.3-21.3z" fill="#333333" p-id="2122"></path><path d="M365.689 114.302c-0.406-6.303 3.603-14.294 6.666-17.314 4.84-4.598 11.757-6.663 18.033-4.698 5.692 1.7 10.284 5.646 12.739 10.905 4.136 8.779 5.016 18.656 2.507 29.81-2.161 9.856-5.947 17.845-11.222 24.013-4.655 5.402-12.106 7.739-18.962 5.957" fill="#FCE643" p-id="2123"></path><path d="M380.215 172.107a28.543 28.543 0 0 1-6.983-0.93c-4.572-1.263-7.29-5.938-6.028-10.51 1.262-4.57 5.937-7.29 10.508-6.027 3.765 1 7.736-0.238 10.262-3.209 4.344-5.131 7.513-11.908 9.417-20.286 2.121-9.273 1.524-17.274-1.84-24.315-1.454-3.075-4.2-5.38-7.516-6.383-3.183-0.96-6.887 0.142-9.73 2.713-1.509 1.442-4.373 7.054-4.168 10.541 0.26 4.694-3.288 8.746-7.982 9.005-4.694 0.26-8.746-3.288-9.005-7.982-0.513-8.717 4.46-19.22 9.344-23.952 7.148-6.897 17.28-9.479 26.425-6.73a29.298 29.298 0 0 1 18.05 15.381c4.956 10.607 5.986 22.54 3.043 35.487-2.51 11.155-6.912 20.356-13.073 27.648-5.275 6.167-12.898 9.49-20.724 9.55z" fill="#333333" p-id="2124"></path><path d="M365.6 114.347c-4.863-4.256-14.217-5.214-18.638-4.42-6.565 1.213-12.301 5.594-14.4 11.827-1.882 5.56-1.389 11.593 1.334 16.716 4.67 8.506 12.19 15.113 22.689 19.64 9.198 3.955 17.887 5.588 25.977 4.946 7.106-0.591 13.377-5.245 15.965-11.839" fill="#FCE643" p-id="2125"></path><path d="M379.229 171.712c-8.32-0.026-17.055-1.972-25.984-5.84-12.25-5.318-21.253-13.077-26.832-23.365-3.856-7.126-4.547-15.753-1.923-23.6 3.151-9.012 11.152-15.558 20.976-17.421 6.298-1.077 18.472 0.128 25.675 6.334 3.601 3.104 3.954 8.423 0.851 12.024-3.103 3.602-8.422 3.955-12.024 0.852-2.251-1.996-8.788-2.93-11.467-2.462-3.707 0.654-6.82 3.137-7.913 6.276-1.138 3.274-0.888 6.85 0.745 9.834 3.72 6.859 9.841 12.045 18.59 15.78 7.897 3.383 15.288 4.893 21.947 4.305 3.889-0.298 7.313-2.828 8.628-6.416 1.665-4.44 6.613-6.624 11.053-4.958 4.44 1.665 6.625 6.613 4.959 11.053-3.728 9.644-12.8 16.51-23.258 17.35-1.251 0.189-2.682 0.244-4.023 0.254z" fill="#333333" p-id="2126"></path><path d="M837.743 848.983c5.593-2.934 14.524-2.522 18.528-0.952 6.17 2.551 10.87 8.03 11.627 14.562 0.762 5.893-0.975 11.692-4.78 16.074-6.338 7.35-15.003 12.17-26.214 14.415-9.883 2.034-18.721 1.826-26.5-0.485-6.83-2.055-11.995-7.911-13.156-14.9" fill="#FCE643" p-id="2127"></path><path d="M824.007 902.97c-5.685 0.028-11.022-0.69-16.089-2.22-9.977-2.933-17.563-11.52-19.142-21.806-0.706-4.69 2.459-9.075 7.148-9.782 4.69-0.706 9.075 2.46 9.781 7.149 0.54 3.783 3.364 6.97 7.105 8.07 6.455 1.88 13.935 2.019 22.363 0.351 9.334-1.834 16.4-5.634 21.465-11.57 2.217-2.58 3.206-6.025 2.773-9.464-0.417-3.297-2.93-6.233-6.435-7.784-1.932-0.792-8.224-1.127-11.326 0.48-4.182 2.145-9.327 0.553-11.473-3.63-2.146-4.182-0.553-9.327 3.63-11.473 7.754-4.014 19.372-3.742 25.682-1.206 9.208 3.725 15.687 11.931 16.896 21.403a29.298 29.298 0 0 1-6.71 22.746c-7.596 8.904-18.079 14.698-31.104 17.276-5.081 1.032-9.863 1.534-14.564 1.46z" fill="#333333" p-id="2128"></path><path d="M837.665 848.92c1.911-6.173-1.019-15.108-3.542-18.825-3.778-5.504-10.114-8.962-16.662-8.345-5.844 0.543-11.155 3.448-14.728 8.018-5.871 7.727-8.848 17.283-8.713 28.716 0.128 10.012 2.17 18.614 6.047 25.743 3.43 6.252 10.232 10.087 17.309 9.77" fill="#FCE643" p-id="2129"></path><path d="M816.497 902.55c-9.808 0.036-19.13-5.455-23.888-14.197-4.574-8.336-6.904-18.33-7.039-29.763-0.124-13.353 3.302-24.734 10.432-34.015 4.942-6.421 12.54-10.562 20.776-11.356 9.516-0.787 18.75 3.86 24.448 12.077 3.545 5.315 7.396 16.927 4.656 26.031-1.37 4.552-6.086 7.039-10.638 5.669-4.553-1.37-7.039-6.086-5.669-10.638 0.907-2.869-0.898-9.22-2.415-11.478-2.105-3.12-5.64-4.953-8.952-4.676-3.454 0.292-6.618 1.975-8.68 4.68-4.754 6.188-7.001 13.89-6.855 23.402 0.121 8.59 1.748 15.956 4.993 21.8 1.854 3.432 5.559 5.53 9.37 5.272 4.735-0.284 8.742 3.348 9.027 8.081 0.284 4.734-3.347 8.742-8.081 9.026-0.563 0.06-0.985 0.104-1.485 0.085z" fill="#333333" p-id="2130"></path><path d="M192.6 759.5c4.8 2.2 8.6 5.7 11 10.1 2.5 4.5 3.6 9.8 3 15.1-0.3 2.4-0.9 4.7-1.8 6.9 2.3 0.3 4.6 0.9 6.8 1.9 4.7 2.1 8.5 5.7 11 10.1 2.5 4.4 3.6 9.6 3 15-0.6 5.5-2.9 10.4-6.3 14.2-3.5 3.9-8.1 6.7-13.2 7.9-2.2 0.5-4.5 0.7-6.8 0.6 0.3 2.2 0.4 4.5 0.2 6.8-0.6 5.3-2.9 10.3-6.4 14.3-3.4 3.8-7.9 6.6-13.2 7.8-5.2 1.2-10.4 0.6-14.9-1.4-4.6-2.1-8.5-5.6-11.1-10.1-1.2-2.1-2.1-4.4-2.6-6.8-2.1 1.2-4.4 2.1-6.8 2.6-5.1 1.1-10.3 0.6-14.9-1.5-4.5-2-8.4-5.4-11-10.1-2.6-4.7-3.6-10-3-15 0.6-5.2 2.8-10.3 6.3-14.3 1.5-1.7 3.3-3.2 5.2-4.5-1.6-1.6-3-3.4-4.1-5.4-2.6-4.6-3.6-9.9-3-15.1 0.6-5.1 2.7-10.1 6.3-14.2 3.6-4.1 8.3-6.7 13.2-7.8 5-1.1 10.2-0.7 14.9 1.4 2.2 1 4.2 2.3 5.9 3.8 1-2.1 2.3-4.1 3.9-5.9 3.5-4 8.2-6.7 13.2-7.8 5.2-1.1 10.4-0.7 15.2 1.4z" fill="#FFD662" p-id="2131"></path><path d="M174.7 879.3c-4.5 0-8.9-0.9-13-2.8-6.3-2.8-11.6-7.7-15-13.7-6.8 1.5-13.9 0.8-20.3-2-6.3-2.8-11.5-7.6-15-13.7-3.4-6.1-4.8-13.1-4.1-20.2 0.8-7.1 3.7-13.7 8.4-19-3.4-6-4.8-13.2-4-20.2 0.8-7.1 3.7-13.6 8.4-18.9 4.7-5.3 10.8-9 17.7-10.5 6.8-1.5 14-0.8 20.3 2 4.7-5.2 11-9 17.8-10.5 6.8-1.5 13.8-0.8 20.2 2 6.4 2.8 11.6 7.6 15 13.7 3.4 6.1 4.9 13.2 4.1 20.2 6.3 2.8 11.6 7.7 15 13.7 3.4 6.1 4.8 13.1 4 20.2-0.8 7.1-3.7 13.6-8.4 18.9-4.7 5.4-10.9 9-17.7 10.5-0.8 7.1-3.7 13.6-8.5 19-4.7 5.3-10.8 8.9-17.7 10.5-2.4 0.5-4.8 0.8-7.2 0.8z m-17.3-40.8l2.4 11.5c0.3 1.5 0.9 3 1.6 4.4 1.6 2.9 4.1 5.2 7.1 6.5 3 1.3 6.3 1.6 9.5 0.9 3.4-0.8 6.4-2.5 8.7-5.2 2.4-2.7 3.9-6.1 4.3-9.6 0.2-1.5 0.1-3-0.1-4.6l-1.6-10.4 10.5 0.6c1.5 0.1 3 0 4.4-0.4 3.3-0.7 6.4-2.6 8.7-5.2 2.4-2.7 3.8-6 4.2-9.5 0.4-3.5-0.3-6.9-2-9.9-1.6-2.9-4.1-5.2-7.1-6.5-1.4-0.6-2.8-1-4.3-1.2l-11.2-1.3 4.3-10.4c0.6-1.5 1-3 1.2-4.6 0.4-3.4-0.3-7-2-10-1.6-2.9-4.1-5.1-7.1-6.4-3-1.3-6.3-1.7-9.5-0.9-3.3 0.7-6.4 2.6-8.7 5.2-1.1 1.2-1.9 2.5-2.6 3.9l-4.8 10.2-8.5-7.4c-1.1-1-2.4-1.8-3.8-2.4-2.9-1.3-6.3-1.6-9.6-0.9-3.3 0.7-6.3 2.5-8.7 5.2-2.4 2.7-3.9 6-4.2 9.5-0.4 3.5 0.3 7 2 10 0.7 1.3 1.6 2.5 2.7 3.5l7.5 7.4-8.8 5.8c-1.3 0.8-2.4 1.8-3.5 3-2.3 2.6-3.8 6-4.2 9.6-0.4 3.5 0.3 6.9 2 9.9 1.6 2.9 4.1 5.1 7 6.5 3 1.3 6.4 1.7 9.6 0.9 1.5-0.3 3-0.9 4.3-1.7l10.3-6z" fill="#333333" p-id="2132"></path><path d="M298.1 945c-10.3 5.4-22.9 1.4-28.3-8.8-2.1-4.1-2.9-8.8-2.1-13.3-8.3-8.1-8.5-21.4-0.4-29.7 3.2-3.3 7.4-5.5 12-6.1 5.1-10.4 17.7-14.7 28.1-9.5 4.1 2 7.5 5.4 9.5 9.5 11.5 1.7 19.4 12.3 17.7 23.8-0.7 4.6-2.8 8.8-6.1 12 2 11.4-5.7 22.3-17.1 24.2-4.5 0.8-9.2 0.1-13.3-2.1z" fill="#72DA77" p-id="2133"></path><path d="M288.4 953.9c-2.7 0-5.5-0.4-8.2-1.2-7-2.2-12.7-6.9-16.1-13.4-2.3-4.3-3.3-9.2-3.1-14.1-3.9-4.8-6-10.6-6.1-16.8-0.1-7.3 2.7-14.2 7.8-19.5 3.4-3.5 7.8-6 12.5-7.3 3.3-5.1 8.3-9 14.1-11 6.9-2.3 14.3-1.9 20.9 1.4 4.4 2.2 8.1 5.5 10.8 9.6 5.9 1.6 11.1 5.1 14.8 10.1 4.4 5.9 6.2 13.1 5.2 20.3-0.7 4.8-2.7 9.4-5.8 13.2 0.3 6.1-1.4 12.1-5 17.2-4.2 6-10.5 9.9-17.7 11.2-4.8 0.8-9.8 0.3-14.4-1.4-3.1 1.1-6.4 1.7-9.7 1.7z m9.7-72c-5.4 0-10.6 3-13.1 8.1l-1.5 3-3.3 0.5c-3.2 0.5-6.1 2-8.3 4.2-2.7 2.8-4.2 6.5-4.1 10.4s1.6 7.5 4.4 10.3l2.4 2.3-0.6 3.3c-0.5 3.1 0 6.4 1.5 9.2 1.8 3.4 4.9 6 8.6 7.1 3.7 1.2 7.7 0.8 11.1-1l3-1.6 3 1.6c2.8 1.5 6.1 2 9.2 1.5 3.8-0.7 7.2-2.8 9.4-6s3.1-7 2.5-10.9l-0.6-3.3 2.4-2.3c2.3-2.2 3.8-5.2 4.2-8.3 0.6-3.9-0.4-7.7-2.7-10.8-2.3-3.1-5.7-5.1-9.6-5.7l-3.3-0.5-1.5-3c-1.4-2.9-3.8-5.2-6.6-6.6-2.1-1.1-4.3-1.5-6.5-1.5z" fill="#333333" p-id="2134"></path><path d="M883.016312 717.746277a36.2 32.6 22 1 1 24.42435-60.452387 36.2 32.6 22 1 1-24.42435 60.452387Z" fill="#FFD662" p-id="2135"></path><path d="M831.93819 693.765243a36.2 32.6 14.998 1 1 16.872803-62.978953 36.2 32.6 14.998 1 1-16.872803 62.978953Z" fill="#FFD662" p-id="2136"></path><path d="M840.809946 702.845475c-8.207878 0.02726-16.518805-2.359891-23.818294-7.250439-19.489656-13.159153-24.615689-39.712943-11.456537-59.202599l10.57836 7.185979c-9.183591 13.653998-5.589842 32.254669 8.064156 41.43826 6.595203 4.498144 14.574584 6.104221 22.434984 4.534476 7.82294-1.477026 14.59785-5.965968 19.003276-12.598631l10.57836 7.185979c-8.231144 12.097449-21.698577 18.735842-35.384305 18.706975z" fill="#333333" p-id="2137"></path><path d="M870.892505 686.849861c-1.207206 0.051525-2.450005-0.342746-3.542963-1.107889-2.982919-1.960152-3.749061-5.936711-1.69619-8.88217 6.980878-10.337666 4.244124-24.385804-6.093543-31.366682-1.611807-1.082626-3.391253-2.017276-5.283081-2.67377-3.320065-1.125686-5.090179-4.752902-3.927032-8.165686 1.125686-3.320065 4.752902-5.090179 8.165686-3.927032 2.949191 0.975844 5.618361 2.377819 8.267867 4.09541 7.780878 5.300748 13.175474 13.304394 14.944719 22.53964 1.769246 9.235246-0.120586 18.717785-5.421335 26.498662-1.362648 2.037938-3.390255 3.052241-5.414128 2.989517z" fill="#333333" p-id="2138"></path><path d="M810.774268 646.382496c-1.207206 0.051525-2.450005-0.342746-3.542962-1.107889-2.982919-1.960152-3.749061-5.936711-1.696191-8.88217 10.95644-16.173325 32.957697-20.442364 49.168482-9.578642 2.371351 1.605209 4.537601 3.451112 6.461291 5.630428 2.405078 2.589517 2.149452 6.692522-0.402605 9.004883-2.589517 2.405078-6.692522 2.149452-9.004882-0.402605-1.183809-1.341118-2.627976-2.57172-4.147064-3.616885-10.337666-6.980878-24.385804-4.244124-31.366682 6.093542-1.380445 1.815041-3.408052 2.829343-5.469387 2.859338zM896.932697 728.109022c-5.292414 0.018795-10.711274-0.984178-15.903503-3.081975-14.278631-5.768942-24.335407-18.783981-26.324816-34.147973l12.744481-1.645664c1.392772 10.700943 8.491893 19.824675 18.41276 23.832966 15.298534 6.181009 32.649807-1.260987 38.793355-16.466803L936.522927 701.394538c-6.705458 16.596591-22.635961 26.661831-39.59023 26.714484z" fill="#333333" p-id="2139"></path><path d="M930.604013 705.366496c-0.761411 0.015931-1.578079-0.098318-2.412545-0.435464-3.245143-1.311123-4.847618-5.086315-3.536494-8.331459 4.682582-11.589798-0.898448-24.737882-12.488246-29.420464-1.854368-0.749213-3.728399-1.182811-5.677352-1.430971-3.489571-0.439197-5.985501-3.604688-5.546304-7.094259 0.439197-3.489571 3.604688-5.985501 7.094259-5.546304 3.081237 0.382073 6.012631 1.135019 8.886901 2.296299C935.134496 662.653445 943.827756 683.314452 936.522927 701.394538c-1.011438 2.503396-3.356527 4.036549-5.918914 3.971958z" fill="#333333" p-id="2140"></path><path d="M907.288248 665.639489c-1.299924 0.014064-2.635442-0.417667-3.728399-1.182811-1.519088-1.045165-3.113098-1.904894-4.782029-2.579185-6.490287-2.622246-13.585544-2.145458-19.632771 1.343244-3.088703 1.77198-6.947281 0.644427-8.756722-2.351557-1.77198-3.088703-0.644427-6.947281 2.351557-8.756722 9.526467-5.426456 20.726596-6.186131 30.8329-2.102919 2.688833 1.086359 5.172566 2.413413 7.506456 4.11134 2.85274 2.01541 3.488703 6.047227 1.473294 8.899967-1.305523 1.629604-3.29567 2.551188-5.264286 2.618643z" fill="#333333" p-id="2141"></path><path d="M907.85949 661.556147c-0.668692 0.053391-1.355182-0.116115-2.134389-0.323082-3.320065-1.125686-5.090179-4.752902-3.927032-8.165686 9.547737-27.635678 0.667043-58.510641-22.01723-76.843227-2.777819-2.200846-3.190884-6.250461-0.89732-8.990818s6.250461-3.190884 8.990819-0.89732c26.851001 21.633856 37.308906 58.215166 26.053909 90.877301-0.863462 2.671036-3.376191 4.352165-6.068757 4.342832z" fill="#333333" p-id="2142"></path><path d="M859.144877 641.982019c-1.708258-0.04306-3.377189-0.717352-4.691177-2.003212-2.405078-2.589517-2.279631-6.637265 0.309886-9.042343 16.077481-14.967117 23.98728-36.146236 21.834833-58.047309-0.322214-3.47364 2.251373-6.64013 5.725013-6.962343 3.511101-0.414932 6.64013 2.251373 6.962344 5.725013 2.658231 25.988147-6.787455 50.96872-25.827193 68.729587-1.173478 1.035833-2.790884 1.568746-4.313706 1.600607z" fill="#333333" p-id="2143"></path><path d="M884.80443 573.400409c1.579077 5.167835-14.223113 15.716331-22.848658 18.379032-8.625545 2.662702-16.991729 0.145372-18.754377-5.635898-1.762648-5.781269 3.757265-12.502918 12.38281-15.16562 8.625545-2.662702 27.548429-2.78281 29.220225 2.422486z" fill="#6EC363" p-id="2144"></path><path d="M855.189327 599.183846c-2.469669-0.02713-4.826956-0.332415-7.0344-1.008573-5.56497-1.709126-9.581855-5.381269-11.087877-10.196027-2.846272-9.238979 4.50548-19.426802 16.681453-23.135668 6.524883-2.001476 33.388689-5.492305 37.190273 6.721128 1.634335 5.298014-1.597613 10.894844-9.845686 17.161366-5.417862 4.066543-12.171242 7.701356-17.208897 9.225175-2.936994 0.862593-5.909582 1.279392-8.694866 1.232599zM869.773851 575.632378c-4.215388 0.022528-8.896234 0.396267-12.353943 1.479891-5.781269 1.762648-8.654541 5.670884-8.176885 7.158111 0.18357 0.613435 1.183809 1.341118 2.556787 1.68013 2.300163 0.713619 5.383266 0.557179 8.227542-0.342875 5.428193-1.689593 12.59364-6.344308 16.188994-9.637243-1.726055-0.265958-3.972827-0.310884-6.442495-0.338014z" fill="#333333" p-id="2145"></path></svg>