<?xml version="1.0" standalone="no"?><!DOCTYPE svg PUBLIC "-//W3C//DTD SVG 1.1//EN" "http://www.w3.org/Graphics/SVG/1.1/DTD/svg11.dtd"><svg t="1734000426186" class="icon" viewBox="0 0 1024 1024" version="1.1" xmlns="http://www.w3.org/2000/svg" p-id="2307" xmlns:xlink="http://www.w3.org/1999/xlink" width="200" height="200"><path d="M0 0h1024v1024H0z" fill="#F7B6B7" p-id="2308"></path><path d="M295 287.1c-28-38.9-117.9-78.7-132.3-59.6-41.3 83.7 8.6 177.3 21 184.6" fill="#FEB569" p-id="2309"></path><path d="M183.7 433.4c-3.6 0-7.3-0.9-10.7-2.9-16-9.3-32.9-46.5-40.6-76.8-8.6-34-13.7-85.1 11.2-135.6l0.9-1.8 1.2-1.6c4.7-6.3 14-13.7 31.8-13.5 36.4 0.3 107.2 35 134.9 73.4 6.9 9.6 4.7 22.9-4.8 29.8-9.6 6.9-22.9 4.7-29.8-4.8-9.4-13-30.1-28.5-54.1-40.5-21.7-10.9-37.5-14.6-44.9-15.1-14.7 34.8-11.6 70.2-6.1 94.3 6.7 29.5 19.1 51.5 23.6 56.5 8.8 6.3 11.5 18.5 5.9 28-4 6.8-11.1 10.6-18.5 10.6z m12.9-38.2z m-2.1-1.6z" fill="#333333" p-id="2310"></path><path d="M833.3 408.4c10.8-7.1 85.7-152.6 17-182.1-6.1-3.1-77.4 3.6-128.1 54.1" fill="#FEB569" p-id="2311"></path><path d="M833.3 429.8c-6.9 0-13.7-3.4-17.8-9.6-5.9-9-4.1-20.9 3.8-27.8 3.7-4.8 15.6-25.5 25.4-52.6 11.4-31.3 15.5-58 11.5-75.2-2.4-10.5-7.4-15-12-17.5-12 0.3-66.5 8.3-106.9 48.5-8.4 8.3-21.9 8.3-30.2-0.1s-8.3-21.9 0.1-30.2c30-29.9 65.3-45 89.6-52.4 15.4-4.7 27.9-6.8 35.6-7.7 15.8-1.9 22.4-0.3 26.8 1.7 16.8 7.4 37.4 24 40.7 61.6 2.9 33.2-8.9 71.1-19.4 97.1-5.3 13.1-11.5 26.2-17.4 37-9.1 16.4-14 21.1-18 23.7-3.7 2.3-7.8 3.5-11.8 3.5z m-11.7-39.2c-0.1 0-0.1 0 0 0-0.1 0-0.1 0 0 0z" fill="#333333" p-id="2312"></path><path d="M170.7 533.3a341.3 277.3 0 1 0 682.6 0 341.3 277.3 0 1 0-682.6 0Z" fill="#FFBB75" p-id="2313"></path><path d="M512 832c-96.1 0-186.6-30.5-254.8-86-33.6-27.3-60.1-59.2-78.6-94.9-19.4-37.3-29.2-76.9-29.2-117.8 0-40.9 9.8-80.5 29.2-117.8 18.5-35.6 45-67.5 78.6-94.9 68.3-55.5 158.8-86 254.8-86s186.6 30.5 254.8 86c33.6 27.3 60.1 59.2 78.6 94.9 19.4 37.3 29.2 76.9 29.2 117.8 0 40.9-9.8 80.5-29.2 117.8-18.5 35.6-45 67.5-78.6 94.9-68.2 55.5-158.7 86-254.8 86z m0-554.7c-176.4 0-320 114.8-320 256s143.6 256 320 256 320-114.8 320-256c0-141.1-143.6-256-320-256z" fill="#333333" p-id="2314"></path><path d="M366.9 480.6m-42.7 0a42.7 42.7 0 1 0 85.4 0 42.7 42.7 0 1 0-85.4 0Z" fill="#333333" p-id="2315"></path><path d="M377.8 480.2m-21.3 0a21.3 21.3 0 1 0 42.6 0 21.3 21.3 0 1 0-42.6 0Z" fill="#FFFFFF" p-id="2316"></path><path d="M658.9 478.6m-42.7 0a42.7 42.7 0 1 0 85.4 0 42.7 42.7 0 1 0-85.4 0Z" fill="#333333" p-id="2317"></path><path d="M669.8 478.2m-21.3 0a21.3 21.3 0 1 0 42.6 0 21.3 21.3 0 1 0-42.6 0Z" fill="#FFFFFF" p-id="2318"></path><path d="M512 622.3c-11.4 0-22.1-4.4-30.2-12.5l-12.5-12.5c-4.7-4.7-7.3-11-7.3-17.7 0-6.7 2.6-13 7.3-17.7 4.7-4.7 11-7.3 17.7-7.3h50c6.7 0 12.9 2.6 17.7 7.3 4.7 4.7 7.3 11 7.3 17.7 0 6.7-2.6 13-7.3 17.7l-12.5 12.5c-8.1 8.1-18.8 12.5-30.2 12.5z" fill="#333333" p-id="2319"></path><path d="M469.5 685.2c-35.3 0-64-28.7-64-64 0-11.8 9.6-21.3 21.3-21.3s21.3 9.6 21.3 21.3c0 11.8 9.6 21.3 21.3 21.3s21.3-9.6 21.3-21.3c0-11.8 9.6-21.3 21.3-21.3s21.3 9.6 21.3 21.3c0.2 35.3-28.5 64-63.8 64z" fill="#333333" p-id="2320"></path><path d="M554.9 685.2c-35.3 0-64-28.7-64-64 0-11.8 9.6-21.3 21.3-21.3s21.3 9.6 21.3 21.3c0 11.8 9.6 21.3 21.3 21.3 11.8 0 21.3-9.6 21.3-21.3 0-11.8 9.6-21.3 21.3-21.3s21.3 9.6 21.3 21.3c0.2 35.3-28.6 64-63.8 64zM280.6 646.2H110.9c-12 0-21.8-9.8-21.8-21.8s9.8-21.8 21.8-21.8h169.7c12 0 21.8 9.8 21.8 21.8s-9.8 21.8-21.8 21.8zM117.6 721.8c-10.4 0-19.6-7.5-21.5-18-2.1-11.8 5.8-23.2 17.6-25.3h0.1L280.9 649c11.9-2.1 23.2 5.9 25.3 17.7 2.1 11.9-5.9 23.2-17.7 25.3l-167.1 29.5c-1.3 0.2-2.5 0.3-3.8 0.3zM284.5 600c-1.2 0-2.5-0.1-3.8-0.3l-167.1-29.5c-5.7-1-10.7-4.2-14.1-9-3.3-4.8-4.6-10.6-3.6-16.3 2.1-11.9 13.4-19.8 25.3-17.7l167.1 29.5c11.8 2.1 19.8 13.4 17.7 25.3-1.8 10.6-11.1 18-21.5 18zM910.4 641.8H740.8c-12 0-21.8-9.8-21.8-21.8s9.8-21.8 21.8-21.8h169.7c12 0 21.8 9.8 21.8 21.8s-9.8 21.8-21.9 21.8zM906 717.7c-1.3 0-2.6-0.1-3.8-0.3l-167.1-29.5c-5.7-1-10.7-4.2-14.1-9-3.3-4.8-4.6-10.6-3.6-16.3 1-5.7 4.2-10.8 9-14.1 4.8-3.3 10.6-4.6 16.4-3.6l167 29.4c5.7 1 10.8 4.2 14.1 9 3.3 4.8 4.6 10.6 3.6 16.3-1 5.7-4.2 10.8-9 14.1-3.8 2.6-8.1 4-12.5 4z m-3.7-1.4z m-167.1-29.4h0.1-0.1z m7.3-41.1c0 0.1 0 0.1 0 0zM739 595.9c-4.4 0-8.8-1.4-12.5-4-4.8-3.3-8-8.4-9-14.1-1-5.8 0.3-11.5 3.6-16.3 3.3-4.8 8.4-8 14.1-9L902.3 523c5.7-1 11.5 0.3 16.3 3.6 4.8 3.3 8 8.4 9 14.1 2.1 11.9-5.9 23.2-17.7 25.3l-167.1 29.5c-1.3 0.3-2.6 0.4-3.8 0.4z m3.7-1.3c-0.1 0 0 0 0 0z" fill="#333333" p-id="2321"></path><path d="M354.808 103.655c-0.405-6.303 3.604-14.294 6.667-17.314 4.84-4.598 11.756-6.663 18.032-4.698 5.693 1.7 10.284 5.646 12.74 10.905 4.136 8.779 5.016 18.656 2.506 29.81-2.16 9.856-5.946 17.845-11.222 24.013-4.654 5.402-12.105 7.739-18.961 5.957" fill="#FFD661" p-id="2322"></path><path d="M369.335 161.46a28.543 28.543 0 0 1-6.984-0.93c-4.571-1.263-7.29-5.938-6.028-10.51 1.262-4.57 5.938-7.29 10.509-6.027 3.675 1.045 7.735-0.238 10.262-3.209 4.344-5.131 7.512-11.908 9.416-20.286 2.121-9.273 1.524-17.274-1.839-24.315-1.454-3.075-4.2-5.38-7.517-6.383-3.183-0.96-6.886 0.142-9.729 2.713-1.51 1.442-4.374 7.054-4.169 10.541 0.26 4.694-3.287 8.746-7.981 9.005-4.694 0.26-8.746-3.288-9.005-7.982-0.514-8.717 4.46-19.22 9.344-23.952 7.148-6.897 17.28-9.479 26.424-6.73a29.298 29.298 0 0 1 18.05 15.381c4.956 10.607 5.986 22.54 3.043 35.487-2.51 11.155-6.912 20.356-13.073 27.648-5.275 6.167-12.897 9.49-20.723 9.55z" fill="#333333" p-id="2323"></path><path d="M354.72 103.7c-4.863-4.256-14.217-5.214-18.639-4.42-6.565 1.213-12.3 5.594-14.4 11.827-1.881 5.56-1.388 11.593 1.334 16.716 4.671 8.506 12.19 15.113 22.69 19.64 9.198 3.955 17.886 5.588 25.976 4.946 7.107-0.591 13.377-5.245 15.966-11.839" fill="#FFD661" p-id="2324"></path><path d="M368.348 161.065c-8.319-0.026-17.054-1.972-25.984-5.84-12.25-5.318-21.253-13.077-26.832-23.365-3.855-7.126-4.547-15.753-1.923-23.599 3.152-9.013 11.152-15.559 20.977-17.422 6.298-1.077 18.471 0.128 25.674 6.334 3.601 3.104 3.955 8.423 0.852 12.024-3.104 3.602-8.423 3.955-12.024 0.852-2.252-1.996-8.788-2.93-11.468-2.462-3.707 0.654-6.819 3.137-7.913 6.276-1.138 3.274-0.887 6.85 0.745 9.834 3.72 6.859 9.841 12.045 18.59 15.78 7.898 3.383 15.288 4.893 21.947 4.305 3.89-0.297 7.314-2.828 8.628-6.416 1.666-4.44 6.613-6.624 11.054-4.958 4.44 1.665 6.624 6.613 4.958 11.053-3.728 9.644-12.8 16.51-23.258 17.35-1.25 0.189-2.682 0.244-4.023 0.254z" fill="#333333" p-id="2325"></path><path d="M257.7 855.3c4.8 2.2 8.6 5.7 11 10.1 2.5 4.5 3.6 9.8 3 15.1-0.3 2.4-0.9 4.7-1.8 6.9 2.3 0.3 4.6 0.9 6.8 1.9 4.7 2.1 8.5 5.7 11 10.1 2.5 4.4 3.6 9.6 3 15-0.6 5.5-2.9 10.4-6.3 14.2-3.5 3.9-8.1 6.7-13.2 7.9-2.2 0.5-4.5 0.7-6.8 0.6 0.3 2.2 0.4 4.5 0.1 6.8-0.6 5.3-2.9 10.3-6.4 14.3-3.4 3.8-7.9 6.6-13.2 7.8-5.2 1.2-10.4 0.6-14.9-1.4-4.6-2.1-8.5-5.6-11.1-10.1-1.2-2.1-2.1-4.4-2.6-6.8-2.1 1.2-4.4 2.1-6.8 2.6-5.1 1.1-10.3 0.6-14.9-1.5-4.5-2-8.4-5.4-11-10.1-2.6-4.7-3.6-10-3-15 0.6-5.2 2.8-10.3 6.3-14.3 1.5-1.7 3.3-3.2 5.2-4.5-1.6-1.6-3-3.4-4.1-5.4-2.6-4.6-3.6-9.9-3-15.1 0.6-5.1 2.7-10.1 6.3-14.2 3.6-4.1 8.3-6.7 13.2-7.8 5-1.1 10.2-0.7 14.9 1.4 2.2 1 4.2 2.3 5.9 3.8 1-2.1 2.3-4.1 3.9-5.9 3.5-4 8.2-6.7 13.2-7.8 5.3-1.1 10.5-0.7 15.3 1.4z" fill="#46FEB8" p-id="2326"></path><path d="M239.7 975.1c-4.5 0-8.9-0.9-13-2.8-6.3-2.8-11.6-7.7-15-13.7-6.8 1.5-13.9 0.8-20.2-2-6.3-2.8-11.5-7.6-15-13.7-3.4-6.1-4.8-13.1-4.1-20.2 0.8-7.1 3.7-13.7 8.4-19-3.4-6.1-4.8-13.1-4-20.2 0.8-7.1 3.7-13.6 8.4-18.9 4.7-5.3 10.8-9 17.7-10.5 6.8-1.5 14-0.8 20.3 2 4.7-5.2 11-9 17.8-10.5 6.8-1.5 13.8-0.8 20.2 2 6.4 2.8 11.6 7.6 15 13.7 3.4 6.1 4.9 13.2 4.1 20.2 6.3 2.8 11.6 7.7 15 13.7 3.4 6.1 4.8 13.1 4 20.2-0.8 7.1-3.7 13.6-8.4 18.9-4.8 5.4-10.9 9-17.7 10.5-0.8 7.1-3.7 13.6-8.5 19-4.7 5.3-10.8 8.9-17.7 10.5-2.5 0.5-4.9 0.8-7.3 0.8z m-17.2-40.8l2.4 11.6c0.3 1.5 0.9 3 1.6 4.4 1.6 2.9 4.1 5.2 7.1 6.5 3 1.3 6.3 1.6 9.5 0.9 3.3-0.8 6.3-2.5 8.7-5.2 2.4-2.7 3.9-6.1 4.3-9.6 0.2-1.5 0.1-3-0.1-4.6l-1.6-10.4 10.5 0.6c1.5 0.1 3 0 4.4-0.4 3.3-0.7 6.4-2.6 8.7-5.2 2.4-2.7 3.8-6 4.2-9.5 0.4-3.5-0.3-6.9-2-9.9-1.6-2.9-4.1-5.2-7.1-6.5-1.4-0.6-2.8-1-4.3-1.2l-11.2-1.3 4.3-10.4c0.6-1.5 1-3 1.2-4.6 0.4-3.4-0.3-7-2-10-1.6-2.9-4.1-5.1-7.1-6.4-3-1.3-6.3-1.7-9.5-0.9-3.3 0.7-6.4 2.6-8.7 5.2-1.1 1.2-1.9 2.5-2.6 3.9l-4.8 10.2-8.5-7.4c-1.1-1-2.4-1.8-3.8-2.4-2.9-1.3-6.3-1.6-9.6-0.9-3.3 0.7-6.3 2.5-8.7 5.2-2.4 2.7-3.9 6-4.2 9.5-0.4 3.5 0.3 7 2 10 0.7 1.3 1.6 2.5 2.7 3.5l7.5 7.4-8.8 5.8c-1.3 0.8-2.4 1.8-3.5 3-2.3 2.6-3.8 6-4.2 9.6-0.4 3.5 0.3 6.9 2 9.9 1.6 2.9 4.1 5.1 7 6.5 3 1.3 6.4 1.7 9.6 0.9 1.5-0.3 3-0.9 4.3-1.7l10.3-6.1z" fill="#333333" p-id="2327"></path><path d="M896 192c-6.8 3.6-15.3 1-18.9-5.9-1.4-2.7-1.9-5.8-1.4-8.9-5.5-5.4-5.6-14.2-0.3-19.8 2.1-2.2 5-3.6 8-4.1 3.4-6.9 11.8-9.8 18.7-6.4 2.8 1.4 5 3.6 6.4 6.4 7.6 1.1 12.9 8.2 11.8 15.8-0.4 3-1.9 5.9-4.1 8 1.3 7.6-3.8 14.8-11.4 16.1-3 0.7-6.1 0.2-8.8-1.2z" fill="#95EF8F" p-id="2328"></path><path d="M889.5 200c-7.3 0-14.4-4-18.1-10.9-1.6-3-2.4-6.3-2.3-9.7-5.9-7.9-5.3-19.1 1.8-26.4 2.4-2.4 5.3-4.2 8.5-5.2 2.5-3.5 6-6.1 10.1-7.5 5.2-1.7 10.7-1.4 15.6 1 3 1.5 5.6 3.7 7.6 6.5 4.1 1.3 7.6 3.8 10.3 7.3 3.3 4.4 4.6 9.7 3.8 15.1-0.5 3.3-1.8 6.5-3.8 9.2 0.1 4.3-1.2 8.4-3.7 12-3.1 4.4-7.8 7.4-13.2 8.3-3.3 0.6-6.8 0.3-9.9-0.8-2.3 0.8-4.5 1.1-6.7 1.1z m6.5-48c-0.8 0-1.6 0.1-2.4 0.4-1.9 0.7-3.5 2-4.4 3.8l-1.5 3-3.3 0.5c-1.6 0.2-3.2 1-4.3 2.2-2.9 3-2.9 7.8 0.1 10.7l2.4 2.3-0.6 3.3c-0.3 1.6 0 3.3 0.8 4.8 1.9 3.7 6.5 5.1 10.2 3.2l3-1.6 3 1.6c1.5 0.8 3.2 1 4.8 0.8 2-0.3 3.7-1.4 4.9-3.1 1.2-1.7 1.6-3.7 1.3-5.7l-0.6-3.3 2.4-2.3c1.2-1.2 2-2.7 2.2-4.3 0.3-2-0.2-4-1.4-5.6s-3-2.7-5-3l-3.3-0.5-1.5-3c-0.7-1.5-2-2.7-3.4-3.4-1.1-0.5-2.2-0.8-3.4-0.8z" fill="#333333" p-id="2329"></path><path d="M900.150441 801.540202c3.750678-0.618396 5.82011 0.613453 6.95132 1.944003 0.90541 1.109159 1.499549 2.400282 1.427311 4.145212 0.008821 0.894384-0.337466 2.060611-0.951185 3.318922-0.175348 0.359518-0.394534 0.808915-0.7036 1.214475 1.617829 0.789068 2.96602 1.446625 4.000737 2.062549 1.350396 0.881153 2.341275 1.586957 2.974841 2.341009 1.536771 1.639615 1.865682 3.246418 1.789033 4.544156-0.162117 1.701093-0.861306 3.36276-3.086239 4.502791-0.846136 0.366133-2.049585 0.780514-3.702431 0.975709-2.233754 0.245648-5.767452 0.191051-10.33366-0.255874l-20.672263-10.082537c-2.895988-3.415151-4.890976-6.168335-6.072639-8.079793-0.727856-1.245081-1.229911-2.26877-1.416285-3.027232-0.232417-0.892179-0.328912-1.606803-0.245648-2.233754 0.085469-0.403355 0.170938-0.806709 0.300245-1.299944 0.131511-0.269638 0.219186-0.449397 0.440576-0.675198 1.586957-2.341275 3.103881-2.714024 5.611683-2.380968 0.806709 0.170938 1.926894 0.383508 3.229044 0.907348 1.212269 0.480003 2.694177 1.091518 4.401885 1.924423 0.173143-0.583114 0.436166-1.12239 0.655352-1.571787 0.569882-1.168432 1.188012-1.979552 1.674631-2.521034 1.416019-1.534565 2.889106-1.817435 4.186844-1.740786s3.404391 0.547831 5.454243 4.329115c0.40997 0.756257 0.776103 1.602393 1.188278 2.582246 1.067527-0.591934 2.049585-0.780514 2.897927-0.923051z" fill="#6EC363" p-id="2330"></path><path d="M905.851663 830.91206c-2.235959 0.022052-4.831436-0.131245-7.78643-0.45989l-0.760668-0.037222L875.104352 819.587181l-0.543686-0.710214c-2.94203-3.548868-5.206656-6.433563-6.480405-8.612454-0.863778-1.422634-1.503959-2.847474-1.918339-4.050923-0.370543-1.293328-0.517491-2.588861-0.350964-3.842762 0.037222-0.760667 0.298039-1.52354 0.558857-2.286412l0.350697-0.719035c0.175348-0.359518 0.440576-0.675198 0.615925-1.034716 3.130077-4.59267 7.064924-4.676201 9.752485-4.255471C878.252944 794.197885 879.59893 794.631845 881.214554 795.197318c0.269638 0.131511 0.672993 0.21698 0.942631 0.348491 0.396739-0.585319 0.749641-1.080758 1.192423-1.53236 2.080191-2.211969 4.664642-3.176652 7.483714-3.02556 3.57974 0.188313 6.552376 2.305726 8.781986 6.174684 5.670957-0.905676 8.913231 1.343248 10.721845 3.33797 1.808614 1.994722 2.593538 4.491499 2.486284 7.220692-0.037222 0.760667-0.164323 1.477497-0.335261 2.284207 0.269638 0.131511 0.539276 0.263023 0.675198 0.440576 1.530155 0.968827 2.836714 1.939859 3.875841 3.002976 2.124294 2.25995 3.088977 4.844401 2.937885 7.663473-0.188313 3.57974-2.128172 6.416454-5.510511 8.104583-1.468677 0.730061-3.119317 1.148852-5.129476 1.392294-1.025895 0.278459-2.143875 0.289485-3.48545 0.302716z m-6.215176-8.928134c4.789804 0.44472 7.383076 0.374421 8.678609 0.227473 1.295533-0.146948 1.964116-0.377159 2.231549-0.469243 0.756257-0.40997 0.754052-0.633566 0.795683-0.947042-0.002205-0.223596 0.083264-0.626951-0.684018-1.33496-0.181964-0.31127-0.813325-0.841726-2.0278-1.545325-0.944836-0.572088-2.113269-1.14197-3.551339-1.843364l-4.358049-2.014302 2.553579-4.095026c0.131511-0.269638 0.396739-0.585319 0.528251-0.854957 0.394534-0.808915 0.52384-1.302149 0.475592-1.659461 0.039427-0.537071-0.142537-0.848341-0.324501-1.159611-0.225801-0.221391-0.769488-0.931605-3.090916-0.506199-0.624745 0.140332-1.383207 0.326706-2.275386 0.559123l-3.700226 1.199305-1.510574-3.518262c-0.366133-0.846136-0.686224-1.558556-1.050152-2.181096-0.40997-0.756257-1.227706-2.045175-1.988373-2.082396-0.223596 0.002205-0.447192 0.00441-0.889974 0.456012-0.177554 0.135922-0.486619 0.541482-0.924989 1.440276-0.175348 0.359518-0.350697 0.719035-0.480003 1.212269l-1.65699 4.309801-4.17829-1.926628c-1.617829-0.789068-3.009857-1.356745-4.042368-1.749074-1.302149-0.52384-2.108858-0.694778-2.422333-0.73641-0.537071-0.039427-0.850547-0.081059-0.940426-0.124896-0.043837 0.089879-0.221391 0.225801-0.530456 0.631361 0.002205 0.223596 0.048247 0.357312 0.140332 0.624746 0.046042 0.133717 0.276254 0.802299 0.91423 2.003542 0.681814 1.111364 2.179157 3.28805 5.121188 6.836918l19.18815 9.247426z" fill="#333333" p-id="2331"></path><path d="M852.672374 894.094203c17.706243 8.635912 48.636391-2.313333 60.603923-26.85041 11.967532-24.537077-1.955487-39.561042-23.167027-49.906601S848.486818 805.26982 836.519285 829.806897s-1.553154 55.651395 16.153089 64.287306z" fill="#EF3A35" p-id="2332"></path><path d="M866.47217 901.158594c-5.769657-0.032545-11.146985-1.0976-15.730834-3.333293-19.054434-9.293468-31.413348-42.580061-18.086865-69.9034 6.181033-12.672996 15.098142-20.006152 26.575977-21.63995 9.244081-1.388151 19.957105 1.055436 32.719981 7.280306 27.952495 13.633343 36.410779 32.333809 25.100803 55.522695-5.961848 12.223599-17.042411 22.395674-30.315363 27.938124-6.815132 2.795349-13.733375 4.205285-20.263699 4.135518z m-11.9148-10.929205C870.016628 897.769373 898.452204 887.828648 909.411483 865.358797c9.205794-18.874675 2.720713-32.496119-21.187209-44.156791-11.145046-5.435802-20.244651-7.537512-27.79205-6.434436C851.856726 815.925509 845.337694 821.53552 840.3841 831.691893c-10.959279 22.469851-1.375867 50.953675 14.17327 58.537496z" fill="#333333" p-id="2333"></path><path d="M883.928237 830.010188m-3.595176-1.753485a4 4 0 1 0 7.190352 3.506969 4 4 0 1 0-7.190352-3.506969Z" fill="#333333" p-id="2334"></path><path d="M856.778574 825.224187m-3.595176-1.753485a4 4 0 1 0 7.190352 3.50697 4 4 0 1 0-7.190352-3.50697Z" fill="#333333" p-id="2335"></path><path d="M903.599128 847.392536m-3.595176-1.753485a4 4 0 1 0 7.190352 3.50697 4 4 0 1 0-7.190352-3.50697Z" fill="#333333" p-id="2336"></path><path d="M886.520635 852.525282m-3.595176-1.753485a4 4 0 1 0 7.190352 3.50697 4 4 0 1 0-7.190352-3.50697Z" fill="#333333" p-id="2337"></path><path d="M868.430884 845.816265m-3.595176-1.753485a4 4 0 1 0 7.190353 3.506969 4 4 0 1 0-7.190353-3.506969Z" fill="#333333" p-id="2338"></path><path d="M858.283525 882.589639m-3.595177-1.753484a4 4 0 1 0 7.190353 3.506969 4 4 0 1 0-7.190353-3.506969Z" fill="#333333" p-id="2339"></path><path d="M854.060332 862.505699m-3.595176-1.753484a4 4 0 1 0 7.190352 3.506969 4 4 0 1 0-7.190352-3.506969Z" fill="#333333" p-id="2340"></path><path d="M876.33305 876.150334m-3.595177-1.753484a4 4 0 1 0 7.190353 3.506969 4 4 0 1 0-7.190353-3.506969Z" fill="#333333" p-id="2341"></path><path d="M895.741791 871.486566m-3.595176-1.753485a4 4 0 1 0 7.190353 3.506969 4 4 0 1 0-7.190353-3.506969Z" fill="#333333" p-id="2342"></path><path d="M845.152651 843.586048m-3.595176-1.753485a4 4 0 1 0 7.190353 3.506969 4 4 0 1 0-7.190353-3.506969Z" fill="#333333" p-id="2343"></path><path d="M119.5 828.4c-10.3 5.4-22.9 1.4-28.3-8.8-2.1-4.1-2.9-8.8-2.1-13.3-8.3-8.1-8.5-21.4-0.4-29.7 3.2-3.3 7.4-5.5 12-6.1 5.1-10.4 17.7-14.7 28.1-9.5 4.1 2 7.5 5.4 9.5 9.5 11.5 1.7 19.4 12.3 17.7 23.8-0.7 4.6-2.8 8.8-6.1 12 2 11.4-5.7 22.3-17.1 24.2-4.6 0.8-9.2 0.1-13.3-2.1z" fill="#FC5353" p-id="2344"></path><path d="M109.8 837.2c-9.9 0-19.4-5.3-24.3-14.6-2.3-4.3-3.3-9.2-3.1-14.1-8.6-10.6-8.1-26.3 1.7-36.3 3.4-3.5 7.8-6 12.5-7.3 7.5-11.5 22.5-15.8 35.1-9.6 4.4 2.2 8.1 5.5 10.8 9.6 13.2 3.5 22 16.5 20 30.4-0.7 4.8-2.7 9.4-5.8 13.2 0.3 6.1-1.4 12.1-5 17.2-4.2 6-10.5 9.9-17.7 11.2-4.8 0.8-9.8 0.3-14.4-1.4-3.3 1.2-6.6 1.7-9.8 1.7z m9.7-71.9c-5.4 0-10.6 3-13.1 8.1l-1.5 3-3.3 0.5c-3.2 0.5-6.1 2-8.3 4.2-5.6 5.8-5.5 15 0.3 20.6L96 804l-0.6 3.3c-0.5 3.1 0 6.4 1.5 9.2 3.7 7.1 12.6 9.9 19.7 6.1l3-1.6 3 1.6c2.8 1.5 6.1 2 9.2 1.5 3.8-0.7 7.2-2.8 9.4-6s3.1-7 2.5-10.9l-0.6-3.3 2.4-2.3c2.3-2.2 3.8-5.2 4.2-8.3 1.2-8-4.4-15.4-12.3-16.5l-3.3-0.5-1.5-3c-1.4-2.9-3.8-5.2-6.6-6.6-2.1-1-4.3-1.4-6.5-1.4z" fill="#333333" p-id="2345"></path></svg>