<?xml version="1.0" standalone="no"?><!DOCTYPE svg PUBLIC "-//W3C//DTD SVG 1.1//EN" "http://www.w3.org/Graphics/SVG/1.1/DTD/svg11.dtd"><svg t="1734000398388" class="icon" viewBox="0 0 1024 1024" version="1.1" xmlns="http://www.w3.org/2000/svg" p-id="1695" xmlns:xlink="http://www.w3.org/1999/xlink" width="200" height="200"><path d="M0 0h1024v1024H0z" fill="#F7E094" p-id="1696"></path><path d="M170.7 533.3a341.3 277.3 0 1 0 682.6 0 341.3 277.3 0 1 0-682.6 0Z" fill="#F7C9C9" p-id="1697"></path><path d="M512 832c-96.1 0-186.6-30.5-254.8-86-33.6-27.3-60.1-59.2-78.6-94.9-19.4-37.3-29.2-76.9-29.2-117.8 0-51 15.8-101.3 45.7-145.5 6.6-9.8 19.9-12.3 29.6-5.7 9.8 6.6 12.3 19.9 5.7 29.6-25.1 37.1-38.4 79.1-38.4 121.5 0 141.2 143.6 256 320 256s320-114.8 320-256c0-41.7-12.2-81.5-36.2-118.3-6.4-9.9-3.7-23.1 6.2-29.5s23.1-3.7 29.5 6.2c28.2 43.2 43.2 92.2 43.2 141.6 0 40.9-9.8 80.5-29.2 117.8-18.5 35.6-45 67.5-78.6 94.9C698.6 801.5 608.1 832 512 832zM304 334.7c-7.1 0-14.1-3.6-18.1-10-6.2-10-3.2-23.2 6.8-29.4 63.5-39.7 139.3-60.7 219.3-60.7 79.3 0 154.6 20.7 217.8 59.7 10 6.2 13.1 19.3 6.9 29.4-6.2 10-19.3 13.1-29.4 6.9-56.4-34.9-124-53.4-195.4-53.4-72 0-140 18.7-196.7 54.2-3.4 2.3-7.3 3.3-11.2 3.3z" fill="#333333" p-id="1698"></path><path d="M809.4 397.4c47.1-1.6 83.9-41.2 82.3-88.3-1.6-47.1-41.2-83.9-88.3-82.3-47.1 1.6-83.9 41.2-82.3 88.3" fill="#F7C9C9" p-id="1699"></path><path d="M809.4 418.8c-11.4 0-20.9-9.1-21.3-20.6-0.4-11.8 8.8-21.7 20.6-22.1 17.1-0.6 32.9-7.8 44.6-20.3 11.7-12.5 17.8-28.8 17.2-45.9-0.6-17.1-7.8-32.9-20.3-44.6-12.5-11.7-28.8-17.8-45.9-17.2-17.1 0.6-32.9 7.8-44.6 20.3-11.7 12.5-17.8 28.8-17.2 45.9 0.4 11.8-8.8 21.7-20.6 22.1-11.8 0.4-21.7-8.8-22.1-20.6-1-28.5 9.2-55.6 28.6-76.5 19.4-20.8 45.8-32.9 74.3-33.9s55.6 9.2 76.5 28.6c20.8 19.6 32.8 46 33.8 74.4 1 28.5-9.2 55.6-28.6 76.5s-45.8 32.9-74.3 33.9h-0.7z" fill="#333333" p-id="1700"></path><path d="M210.6 396.4c-47.1-1.6-83.9-41.2-82.3-88.3 0.8-23.9 11.4-45.2 27.9-60.2 15.9-14.5 37.2-23 60.4-22.1 47.1 1.6 83.9 41.2 82.3 88.3" fill="#F7C9C9" p-id="1701"></path><path d="M210.6 417.7h-0.8c-28.5-1-54.9-13-74.3-33.9s-29.6-48-28.6-76.5c1-29 13.4-55.7 34.8-75.2 20.7-18.8 47.5-28.7 75.5-27.7 58.8 2.1 104.9 51.5 102.9 110.3-0.4 11.8-10.3 21-22.1 20.6-11.8-0.4-21-10.3-20.6-22.1 1.2-35.3-26.5-65-61.7-66.2-16.8-0.6-32.9 5.3-45.3 16.6-12.9 11.7-20.3 27.7-20.9 45.1-0.6 17.1 5.5 33.4 17.2 45.9s27.5 19.7 44.6 20.3c11.8 0.4 21 10.3 20.6 22.1-0.4 11.6-9.9 20.7-21.3 20.7z" fill="#333333" p-id="1702"></path><path d="M219.4 361.9c-23.5-0.8-42-20.6-41.2-44.1 0.8-23.5 20.6-42 44.1-41.2 23.5 0.8 42 20.6 41.2 44.1M802 361.3c23.5-0.8 42-20.6 41.2-44.1-0.8-23.5-20.6-42-44.1-41.2-23.5 0.8-42 20.6-41.2 44.1" fill="#F3A6C8" p-id="1703"></path><path d="M382.9 453m-42.7 0a42.7 42.7 0 1 0 85.4 0 42.7 42.7 0 1 0-85.4 0Z" fill="#333333" p-id="1704"></path><path d="M393.7 452.6m-21.3 0a21.3 21.3 0 1 0 42.6 0 21.3 21.3 0 1 0-42.6 0Z" fill="#FFFFFF" p-id="1705"></path><path d="M638.9 453m-42.7 0a42.7 42.7 0 1 0 85.4 0 42.7 42.7 0 1 0-85.4 0Z" fill="#333333" p-id="1706"></path><path d="M649.7 452.6m-21.3 0a21.3 21.3 0 1 0 42.6 0 21.3 21.3 0 1 0-42.6 0Z" fill="#FFFFFF" p-id="1707"></path><path d="M384 618.7a128 106.7 0 1 0 256 0 128 106.7 0 1 0-256 0Z" fill="#F3A6C8" p-id="1708"></path><path d="M512 746.7c-39.2 0-76.2-12.9-104.2-36.2-29.1-24.3-45.2-56.9-45.2-91.8s16-67.5 45.2-91.8c28-23.3 65-36.2 104.2-36.2s76.2 12.9 104.2 36.2c29.1 24.3 45.2 56.9 45.2 91.8s-16 67.5-45.2 91.8c-28 23.3-65 36.2-104.2 36.2z m0-213.4c-58.8 0-106.7 38.3-106.7 85.3S453.2 704 512 704s106.7-38.3 106.7-85.3-47.9-85.4-106.7-85.4z" fill="#333333" p-id="1709"></path><path d="M470.5 620.9m-21.3 0a21.3 21.3 0 1 0 42.6 0 21.3 21.3 0 1 0-42.6 0Z" fill="#333333" p-id="1710"></path><path d="M555.9 620.9m-21.3 0a21.3 21.3 0 1 0 42.6 0 21.3 21.3 0 1 0-42.6 0Z" fill="#333333" p-id="1711"></path><path d="M739.84 898.278c4.333-4.595 12.911-7.113 17.208-6.932 6.664 0.403 12.892 4.053 15.735 9.983 2.638 5.324 2.884 11.373 0.712 16.755-3.599 9.012-10.222 16.392-20.092 22.164-8.682 5.141-17.107 7.821-25.214 8.169-7.126 0.28-13.917-3.575-17.29-9.805" fill="#FF6E6E" p-id="1712"></path><path d="M727.417 956.969c-9.996-0.02-19.367-5.56-24.029-14.386-2.194-4.204-0.63-9.381 3.575-11.575 4.204-2.195 9.38-0.63 11.575 3.574 1.742 3.401 5.45 5.495 9.345 5.317 6.716-0.323 13.833-2.627 21.259-6.948 8.229-4.774 13.673-10.667 16.528-17.928 1.257-3.161 1.07-6.74-0.458-9.851-1.469-2.982-4.8-4.94-8.619-5.266-2.084-0.12-8.142 1.613-10.552 4.141-3.257 3.39-8.639 3.56-12.03 0.304-3.39-3.256-3.56-8.639-0.304-12.03 6.025-6.32 17.099-9.845 23.89-9.501 9.92 0.524 18.718 6.174 22.944 14.735a29.298 29.298 0 0 1 1.061 23.692c-4.377 10.858-12.402 19.75-23.878 26.427-9.87 5.772-19.602 8.828-29.136 9.295-0.41-0.043-0.76 0.043-1.17 0z" fill="#333333" p-id="1713"></path><path d="M739.746 898.244c-0.203-6.459-5.883-13.953-9.479-16.646-5.364-3.974-12.48-5.18-18.47-2.466-5.35 2.417-9.426 6.892-11.316 12.377-3.035 9.217-2.74 19.222 1.11 29.988 3.381 9.425 8.112 16.893 14.1 22.371 5.278 4.795 12.958 6.207 19.546 3.603" fill="#FF6E6E" p-id="1714"></path><path d="M728.45 957.345c-6.706 0.007-13.344-2.516-18.468-7.148-7.038-6.392-12.495-15.083-16.345-25.849-4.465-12.586-4.931-24.462-1.211-35.559 2.582-7.68 8.42-14.068 15.947-17.5 8.741-3.843 18.985-2.456 27.048 3.459 5.082 3.872 12.504 13.596 12.877 23.097 0.186 4.75-3.463 8.637-8.213 8.823-4.656 0.22-8.637-3.463-8.823-8.213-0.076-3.007-3.85-8.425-6.02-10.066-3.007-2.265-6.946-2.847-9.987-1.507-3.17 1.4-5.615 4.023-6.684 7.252-2.48 7.398-2.097 15.412 1.138 24.358 2.911 8.083 6.848 14.518 11.819 18.987 2.87 2.641 7.056 3.42 10.576 1.934 4.384-1.81 9.355 0.32 11.165 4.703 1.81 4.383-0.319 9.355-4.702 11.165-3.298 1.46-6.699 2.031-10.116 2.064z" fill="#333333" p-id="1715"></path><path d="M327.88 125.641c-0.405-6.303 3.604-14.294 6.667-17.313 4.84-4.599 11.757-6.664 18.033-4.699 5.692 1.701 10.284 5.647 12.739 10.905 4.136 8.78 5.016 18.656 2.507 29.811-2.161 9.856-5.947 17.845-11.222 24.012-4.655 5.402-12.106 7.74-18.962 5.958" fill="#95CAFC" p-id="1716"></path><path d="M342.407 183.447a28.543 28.543 0 0 1-6.983-0.931c-4.572-1.262-7.29-5.938-6.028-10.509 1.262-4.571 5.937-7.29 10.508-6.028 3.676 1.046 7.736-0.237 10.262-3.208 4.344-5.132 7.513-11.909 9.417-20.286 2.121-9.274 1.524-17.275-1.84-24.316-1.454-3.074-4.2-5.38-7.516-6.383-3.183-0.96-6.887 0.142-9.73 2.713-1.509 1.443-4.373 7.055-4.168 10.541 0.26 4.694-3.288 8.746-7.982 9.006-4.694 0.259-8.746-3.288-9.005-7.982-0.513-8.717 4.46-19.22 9.344-23.953 7.148-6.897 17.28-9.478 26.425-6.73a29.298 29.298 0 0 1 18.05 15.382c4.956 10.606 5.986 22.54 3.043 35.486-2.51 11.155-6.912 20.357-13.073 27.649-5.275 6.167-12.898 9.49-20.724 9.549z" fill="#333333" p-id="1717"></path><path d="M327.792 125.687c-4.863-4.257-14.217-5.214-18.638-4.42-6.565 1.212-12.301 5.594-14.4 11.826-1.882 5.56-1.389 11.594 1.334 16.716 4.67 8.507 12.19 15.113 22.689 19.64 9.198 3.955 17.887 5.589 25.977 4.946 7.106-0.59 13.377-5.245 15.965-11.839" fill="#95CAFC" p-id="1718"></path><path d="M341.42 183.052c-8.318-0.026-17.054-1.973-25.983-5.84-12.25-5.319-21.253-13.077-26.832-23.366-3.856-7.126-4.547-15.752-1.923-23.599 3.151-9.013 11.152-15.558 20.976-17.422 6.298-1.076 18.472 0.128 25.675 6.335 3.601 3.103 3.954 8.422 0.851 12.024-3.103 3.601-8.422 3.955-12.024 0.851-2.251-1.995-8.788-2.93-11.467-2.462-3.707 0.654-6.82 3.138-7.913 6.277-1.138 3.273-0.888 6.849 0.745 9.833 3.72 6.86 9.841 12.045 18.59 15.78 7.897 3.384 15.288 4.893 21.947 4.306 3.889-0.298 7.313-2.829 8.628-6.416 1.665-4.44 6.613-6.625 11.053-4.959 4.44 1.666 6.625 6.613 4.959 11.054-3.728 9.643-12.8 16.51-23.258 17.35-1.251 0.188-2.682 0.244-4.024 0.254z" fill="#333333" p-id="1719"></path><path d="M118.78035 790.462425c1.584679-3.455256 3.76314-4.482051 5.49878-4.675833 1.425833-0.130385 2.828461 0.099038 4.234679 1.134679 0.74641 0.49282 1.519615 1.432051 2.219615 2.644486 0.2 0.34641 0.45 0.779423 0.613398 1.262436 1.558846-0.9 2.857884-1.65 3.947114-2.163397 1.485641-0.626795 2.624871-1.05359 3.604294-1.15718 2.218653-0.35718 3.734679 0.268653 4.767692 1.057884 1.319615 1.085641 2.306218 2.594486 2.007179 5.076537-0.169615 0.906218-0.499038 2.135641-1.261473 3.615063-1.045448 1.98923-3.06673 4.888269-5.990639 8.42391l-19.918584 11.5c-4.450704 0.491154-7.84878 0.605514-10.094229 0.516283-1.43923-0.09282-2.568653-0.249038-3.301666-0.518654-0.869615-0.306218-1.516025-0.625833-1.989231-1.045448-0.286603-0.29641-0.573205-0.59282-0.909807-0.975833-0.15-0.259808-0.25-0.433013-0.313398-0.74282-1.05359-2.624871-0.514359-4.090897 1.164102-5.983717 0.59282-0.573205 1.395448-1.383013 2.557884-2.169615 1.075833-0.736603 2.411474-1.623205 4.056922-2.573205-0.386603-0.469615-0.686603-0.98923-0.936603-1.422244-0.65-1.125833-0.976795-2.091858-1.15359-2.798076-0.480385-2.032051 0.108846-3.411474 0.898077-4.444486s2.357884-2.516025 6.638972-2.100962c0.856218 0.083013 1.762436 0.252628 2.805256 0.458846 0.106218-1.216025 0.499038-2.135641 0.855256-2.918654z" fill="#6EC363" p-id="1720"></path><path d="M109.692151 821.921202c-0.583013-0.009808-1.166025-0.019615-1.612436 0.00718-1.662436-0.079423-3.201666-0.345448-4.431089-0.674871-1.279423-0.416025-2.435641-1.018653-3.382051-1.857884-0.609808-0.456218-1.183013-1.049038-1.583012-1.741859l-0.4-0.69282c-0.2-0.34641-0.263397-0.656218-0.463398-1.002628-2.05718-5.16314 0.073909-8.471985 2.012178-10.514806C100.584971 804.547104 101.697406 803.673899 103.06965 802.650694c0.259808-0.15 0.556218-0.436603 0.816025-0.586603-0.263397-0.656218-0.476795-1.225833-0.60359-1.845448-0.670577-2.961474-0.025129-5.643524 1.676537-7.896152 2.157884-2.862436 5.575575-4.14282 10.02987-3.827757 2.420319-5.207884 6.097818-6.638269 8.762882-7.022243 2.665064-0.383975 5.173909 0.361474 7.376537 1.976537 0.609808 0.456218 1.133013 0.962436 1.706218 1.555256 0.259808-0.15 0.519615-0.3 0.74282-0.313398 1.658846-0.726795 3.194486-1.266987 4.656922-1.533974 3.061474-0.497372 5.743524 0.148076 7.996152 1.849742 2.862436 2.157884 4.129423 5.35237 3.637565 9.100446-0.216025 1.625833-0.791858 3.228461-1.714102 5.031089-1.291858 2.362436-3.436345 5.448076-6.483459 9.17032l-0.456218 0.609807L119.822982 821.268316l-0.892821 0.05359c-3.867691 0.500962-6.90596 0.638526-9.23801 0.599296z m-3.997372-9.123651c0.186603 0.123205 0.323205 0.159808 0.59641 0.233012 0.136603 0.036603 0.819615 0.219615 2.172243 0.362436 1.302628 0.056218 3.944486 0.032051 8.531793-0.422501l18.446341-10.65c3.047114-3.722243 4.438973-5.911474 5.041601-7.067692 0.602628-1.156218 0.785641-1.83923 0.772243-2.062435 0.083013-0.856218-0.05359-0.89282-0.340192-1.189231-0.186603-0.123205-0.423205-0.333013-1.489231-0.179422-0.273205-0.073205-1.066025 0.15359-2.328461 0.766987-1.002628 0.463397-2.128461 1.113397-3.514102 1.913397l-4.106921 2.486603-1.916988-4.32032c-0.15-0.259808-0.263397-0.656218-0.413397-0.916025-0.45-0.779423-0.923205-1.199038-1.109808-1.322243-0.423205-0.333013-0.783013-0.356218-1.14282-0.379423-0.309808 0.063397-1.202628 0.116987-2.148076 2.279423-0.233013 0.59641-0.502628 1.329423-0.808846 2.199038l-1.074871 3.738269L117.100223 797.55236c-0.906218-0.169615-1.675833-0.302628-2.395448-0.349038-0.856218-0.083013-2.382051-0.125833-2.838269 0.483975-0.123205 0.186603-0.24641 0.373205-0.119615 0.99282 0.013397 0.223205 0.176795 0.706218 0.676795 1.572243 0.2 0.34641 0.4 0.69282 0.736602 1.075833l2.646411 3.783717-3.933717 2.386602c-1.558846 0.9-2.721281 1.686603-3.710512 2.373206-1.162436 0.786603-1.755256 1.359808-1.965064 1.59641-0.333013 0.423205-0.54282 0.659808-0.629422 0.709807-0.136603-0.036603-0.073205 0.273205 0.126795 0.619616z" fill="#333333" p-id="1721"></path><path d="M168.961697 881.579067c17.0607-9.85 25.279285-41.614994 11.629285-65.257488S146.613294 795.870498 126.261697 807.620498C105.823497 819.420498 92.982412 835.379086 106.632412 859.021579s45.268584 32.407488 62.329285 22.557488z" fill="#EF3A35" p-id="1722"></path><path d="M152.340227 889.789837c-5.556922-0.024871-11.390639-0.929165-17.241343-2.862882-13.627241-4.603074-25.390381-13.97743-32.190381-25.755376-12.9-22.343455-5.766799-41.588388 21.166591-57.138388 12.297561-7.1 22.77743-10.148334 32.132428-9.545002 11.477241 0.879165 20.920766 7.435829 28.020766 19.73339 6.8 11.777945 9.03686 26.652301 6.209619 40.755376-2.767434 13.606664-10.023136 24.839419-19.37621 30.239419-5.196152 3-11.688715 4.554552-18.72147 4.573463z m1.324733-86.905495c-7.169358-0.017691-15.467176 2.810065-25.253263 8.460065C105.375421 824.644407 99.856321 838.685046 110.356321 856.871579c5.8 10.045895 15.820319 18.001597 27.521728 21.869031 10.881793 3.647818 21.659034 3.314548 28.933648-0.885452 7.274613-4.2 12.951855-13.36673 15.233648-24.614548 2.501408-12.067434 0.571728-24.809739-5.178273-34.769031-5.65-9.786087-12.631089-14.877688-21.179869-15.484609-0.719615-0.04641-1.38923-0.006218-2.022243-0.102628z" fill="#333333" p-id="1723"></path><path d="M133.311697 819.831456m-3.464102 2a4 4 0 1 0 6.928203-4 4 4 0 1 0-6.928203 4Z" fill="#333333" p-id="1724"></path><path d="M114.162024 839.663249m-3.464102 2a4 4 0 1 0 6.928203-4 4 4 0 1 0-6.928203 4Z" fill="#333333" p-id="1725"></path><path d="M158.722139 813.243634m-3.464101 2a4 4 0 1 0 6.928203-4 4 4 0 1 0-6.928203 4Z" fill="#333333" p-id="1726"></path><path d="M153.427207 830.272541m-3.464102 2a4 4 0 1 0 6.928203-4 4 4 0 1 0-6.928203 4Z" fill="#333333" p-id="1727"></path><path d="M137.749519 841.51799m-3.464102 2a4 4 0 1 0 6.928204-4 4 4 0 1 0-6.928204 4Z" fill="#333333" p-id="1728"></path><path d="M162.561697 870.493942m-3.464102 2a4 4 0 1 0 6.928203-4 4 4 0 1 0-6.928203 4Z" fill="#333333" p-id="1729"></path><path d="M143.549777 862.764331m-3.464102 2a4 4 0 1 0 6.928203-4 4 4 0 1 0-6.928203 4Z" fill="#333333" p-id="1730"></path><path d="M167.316437 851.929394m-3.464101 2a4 4 0 1 0 6.928203-4 4 4 0 1 0-6.928203 4Z" fill="#333333" p-id="1731"></path><path d="M174.303228 833.230872m-3.464101 2a4 4 0 1 0 6.928203-4 4 4 0 1 0-6.928203 4Z" fill="#333333" p-id="1732"></path><path d="M122.883563 859.569398m-3.464102 2a4 4 0 1 0 6.928203-4 4 4 0 1 0-6.928203 4Z" fill="#333333" p-id="1733"></path><path d="M710.598318 89.4468c3.769975-0.487123 5.795155 0.816198 6.879241 2.185417 0.866149 1.140082 1.414867 2.451153 1.281776 4.192499-0.022398 0.894147-0.409175 2.047578-1.066435 3.283705-0.187789 0.353179-0.422524 0.794653-0.745555 1.189179 1.589306 0.845049 2.913727 1.549256 3.926317 2.200917 1.318822 0.927744 2.284465 1.667699 2.891329 2.443403 1.478613 1.692248 1.751247 3.309552 1.629355 4.603825-0.221386 1.694399-0.97814 3.330652-3.241505 4.392339-0.858399 0.33638-2.075576 0.708509-3.734226 0.845902-2.240966 0.167541-5.770606-0.010346-10.318436-0.616358l-20.307794-10.797846c-2.775036-3.514139-4.672725-6.33527-5.786959-8.286803-0.68396-1.269724-1.149983-2.310312-1.309774-3.074816-0.201138-0.899746-0.272635-1.617303-0.167541-2.240966 0.099494-0.400126 0.198988-0.800252 0.345429-1.288674 0.140841-0.264884 0.234736-0.441474 0.463872-0.659411 1.667699-2.284465 3.196708-2.604046 5.691359-2.183672 0.800252 0.198988 1.912336 0.450522 3.19541 1.019487 1.194779 0.522018 2.654442 1.184878 4.332043 2.076874 0.193388-0.576716 0.475071-1.106484 0.709807-1.547958 0.610313-1.147832 1.256374-1.936885 1.761594-2.461054 1.468712-1.484212 2.950773-1.715499 4.245046-1.593607s3.383199 0.666309 5.299836 4.516828c0.383328 0.770104 0.719708 1.628503 1.097436 2.622143 1.087535-0.554317 2.075576-0.708509 2.928375-0.821353z" fill="#6EC363" p-id="1734"></path><path d="M716.700519 119.080281c-2.458903-0.061595-5.54147-0.228284-9.195152-0.811897l-0.758905-0.063746L684.937657 106.60869l-0.51857-0.728756c-2.816384-3.649381-4.978956-6.611353-6.175886-8.83337-0.813602-1.451913-1.403668-2.898226-1.775796-4.115404-0.325181-1.305472-0.426826-2.605344-0.263586-3.764375 0.063746-0.758905 0.262734-1.559157 0.63831-2.265516l0.375578-0.706358c0.187789-0.353179 0.463872-0.659411 0.65166-1.01259 3.288452-4.480635 7.223817-4.42679 9.983353-3.865574C689.011751 81.479986 690.341772 81.960657 691.936677 82.582169c0.264884 0.140841 0.66501 0.240335 0.929895 0.381177 0.416925-0.571116 0.786903-1.053938 1.245175-1.489812 2.15612-2.138024 4.772664-3.011923 7.584746-2.762539 3.570987 0.31313 6.467916 2.532996 8.561143 6.47741 5.69911-0.707211 8.860923 1.653497 10.59882 3.710123 1.737897 2.056626 2.435207 4.579276 2.232771 7.303063-0.063746 0.758905-0.215786 1.470862-0.414774 2.271115 0.264884 0.140841 0.529769 0.281683 0.65941 0.463872 1.495411 1.021638 2.767286 2.037677 3.768677 3.136411 2.044129 2.33271 2.918029 4.949253 2.668645 7.761336-0.31313 3.570987-2.350807 6.338273-5.790001 7.907332-1.493261 0.67836-3.157511 1.03929-5.17494 1.21243-0.717557 0.071496-1.388167 0.054697-2.105725 0.126194z m-7.329317-9.220147c4.771366 0.611611 7.365511 0.631859 8.665383 0.530214 1.299872-0.101645 1.976082-0.308383 2.246566-0.391078 0.770104-0.383328 0.728756-0.518569 0.82825-0.918695 0.0056-0.223537 0.058146-0.535368-0.637013-1.358019-0.17099-0.317431-0.783454-0.869598-1.972633-1.615153-0.924295-0.604713-2.072127-1.215027-3.484843-1.966181l-4.285096-2.165169 2.694938-4.003412c0.140841-0.264884 0.416925-0.571116 0.510819-0.747706 0.422524-0.794653 0.568965-1.283074 0.533217-1.641852 0.058146-0.535368-0.112844-0.852799-0.283833-1.17023-0.217937-0.229136-0.736507-0.957893-3.071368-0.613762-0.629262 0.118443-1.393767 0.278234-2.293513 0.479372l-3.739826 1.069438L703.695381 91.779065c-0.33638-0.858399-0.631413-1.581555-0.973393-2.216417-0.383328-0.770104-1.155582-2.086775-1.914487-2.150521-0.223537-0.0056-0.447073-0.011199-0.905346 0.424675-0.182189 0.129642-0.50522 0.524169-0.974691 1.407116-0.187789 0.353179-0.375577 0.706358-0.522018 1.194779l-1.806391 4.249348-4.108506-2.071274c-1.589306-0.845049-2.872379-1.414014-3.978863-1.889086-1.283074-0.568965-2.083326-0.767953-2.395158-0.8205-0.535368-0.058146-0.8472-0.110693-0.935494-0.15764-0.046947 0.088295-0.229136 0.217937-0.552167 0.612464-0.0056 0.223537 0.035748 0.358779 0.118443 0.629262 0.041348 0.135242 0.248086 0.811451 0.843751 2.034229 0.642612 1.134482 2.063079 3.362098 4.879462 7.011479l18.900679 9.823155z" fill="#333333" p-id="1735"></path><path d="M659.919086 180.28746c17.394068 9.24859 48.687497-0.614538 61.50407-24.719007 12.816574-24.104469-0.573636-39.605188-21.411199-50.684718S658.836005 91.371112 646.019432 115.475581s-3.494414 55.563289 13.899654 64.811879z" fill="#EF3A35" p-id="1736"></path><path d="M675.028688 187.86835c-6.352921 0.019802-12.225172-1.290417-17.169678-3.919457-18.718489-9.952797-29.908189-43.650432-15.636253-70.49204 6.619549-12.449561 15.787149-19.467047 27.315011-20.699279 9.375191-1.017744 19.908114 1.751286 32.44597 8.417782 27.45967 14.600566 35.260165 33.58483 23.147798 56.364877-6.384813 12.008087-17.813627 21.78726-31.271922 26.863114-6.320622 2.302116-12.748488 3.527896-18.830926 3.465003z m-13.090875-11.377565c7.41676 3.943561 18.199067 3.900508 28.946924-0.124857 11.559309-4.273451 21.342821-12.662306 26.741744-22.816203 9.858903-18.541899 3.853154-32.381371-19.633252-44.869315-10.94855-5.821447-19.969264-8.239449-27.550561-7.400445C661.831982 102.137918 655.121135 107.517001 649.816106 117.494309c-11.736789 22.07369-3.153286 50.874618 12.121707 58.996476z" fill="#333333" p-id="1737"></path><path d="M693.392408 117.333296m-3.53179-1.877886a4 4 0 1 0 7.06358 3.755773 4 4 0 1 0-7.06358-3.755773Z" fill="#333333" p-id="1738"></path><path d="M666.426313 111.602702m-3.53179-1.877886a4 4 0 1 0 7.06358 3.755772 4 4 0 1 0-7.06358-3.755772Z" fill="#333333" p-id="1739"></path><path d="M712.444681 135.39156m-3.53179-1.877886a4 4 0 1 0 7.063581 3.755772 4 4 0 1 0-7.063581-3.755772Z" fill="#333333" p-id="1740"></path><path d="M695.197462 139.925149m-3.531791-1.877887a4 4 0 1 0 7.063581 3.755773 4 4 0 1 0-7.063581-3.755773Z" fill="#333333" p-id="1741"></path><path d="M677.352872 132.588895m-3.53179-1.877886a4 4 0 1 0 7.06358 3.755772 4 4 0 1 0-7.06358-3.755772Z" fill="#333333" p-id="1742"></path><path d="M665.928322 168.985731m-3.531791-1.877887a4 4 0 1 0 7.063581 3.755773 4 4 0 1 0-7.063581-3.755773Z" fill="#333333" p-id="1743"></path><path d="M662.408621 148.766638m-3.53179-1.877886a4 4 0 1 0 7.063581 3.755772 4 4 0 1 0-7.063581-3.755772Z" fill="#333333" p-id="1744"></path><path d="M684.19158 163.180268m-3.531791-1.877887a4 4 0 1 0 7.063581 3.755773 4 4 0 1 0-7.063581-3.755773Z" fill="#333333" p-id="1745"></path><path d="M703.751261 159.196695m-3.53179-1.877886a4 4 0 1 0 7.063581 3.755772 4 4 0 1 0-7.063581-3.755772Z" fill="#333333" p-id="1746"></path><path d="M654.166653 129.547638m-3.53179-1.877886a4 4 0 1 0 7.06358 3.755772 4 4 0 1 0-7.06358-3.755772Z" fill="#333333" p-id="1747"></path><path d="M923.2 759.5c4.8 2.2 8.6 5.7 11 10.1 2.5 4.5 3.6 9.8 3 15.1-0.3 2.4-0.9 4.7-1.8 6.9 2.3 0.3 4.6 0.9 6.8 1.9 4.7 2.1 8.5 5.7 11 10.1 2.5 4.4 3.6 9.6 3 15-0.6 5.5-2.9 10.4-6.3 14.2-3.5 3.9-8.1 6.7-13.2 7.9-2.2 0.5-4.5 0.7-6.8 0.6 0.3 2.2 0.4 4.5 0.2 6.8-0.6 5.3-2.9 10.3-6.4 14.3-3.4 3.8-7.9 6.6-13.2 7.8-5.2 1.2-10.4 0.6-14.9-1.4-4.6-2.1-8.5-5.6-11.1-10.1-1.2-2.1-2.1-4.4-2.6-6.8-2.1 1.2-4.4 2.1-6.8 2.6-5.1 1.1-10.3 0.6-14.9-1.5-4.5-2-8.4-5.4-11-10.1-2.6-4.7-3.6-10-3-15 0.6-5.2 2.8-10.3 6.3-14.3 1.5-1.7 3.3-3.2 5.2-4.5-1.6-1.6-3-3.4-4.1-5.4-2.6-4.6-3.6-9.9-3-15.1 0.6-5.1 2.7-10.1 6.3-14.2 3.6-4.1 8.3-6.7 13.2-7.8 5-1.1 10.2-0.7 14.9 1.4 2.2 1 4.2 2.3 5.9 3.8 1-2.1 2.3-4.1 3.9-5.9 3.5-4 8.2-6.7 13.2-7.8 5.2-1.2 10.4-0.8 15.2 1.4z" fill="#71DA77" p-id="1748"></path><path d="M905.2 879.2c-4.5 0-8.9-0.9-13-2.8-6.3-2.8-11.6-7.7-15-13.7-6.8 1.5-14 0.8-20.3-2-6.3-2.8-11.5-7.6-15-13.7-3.4-6.1-4.8-13.1-4.1-20.2 0.8-7.1 3.7-13.7 8.4-19-3.4-6.1-4.8-13.1-4-20.2 0.8-7.1 3.7-13.6 8.4-18.9 4.7-5.3 10.8-9 17.7-10.5 6.8-1.5 14-0.8 20.3 2 4.7-5.2 11-9 17.8-10.5 6.8-1.5 13.8-0.8 20.2 2 6.4 2.8 11.5 7.6 15 13.7 3.4 6.1 4.9 13.2 4.1 20.2 6.3 2.8 11.6 7.7 15 13.7 3.4 6.1 4.8 13.1 4 20.2-0.8 7.1-3.7 13.6-8.4 18.9-4.8 5.4-10.9 9-17.7 10.5-0.8 7.1-3.7 13.6-8.5 19-4.7 5.3-10.8 8.9-17.7 10.5-2.4 0.6-4.8 0.8-7.2 0.8zM888 838.5l2.4 11.5c0.3 1.5 0.9 3 1.6 4.4 1.6 2.9 4.1 5.2 7.1 6.5 3 1.3 6.3 1.6 9.5 0.9 3.4-0.8 6.4-2.5 8.7-5.2 2.4-2.7 3.9-6.1 4.3-9.6 0.2-1.5 0.1-3-0.1-4.6l-1.6-10.4 10.5 0.6c1.5 0.1 3 0 4.4-0.4 3.3-0.7 6.4-2.6 8.7-5.2 2.4-2.7 3.8-6 4.2-9.5 0.4-3.5-0.3-6.9-2-9.9-1.6-2.9-4.1-5.2-7.1-6.5-1.4-0.6-2.8-1-4.3-1.2l-11.2-1.3 4.3-10.4c0.6-1.5 1-3 1.2-4.6 0.4-3.4-0.3-7-2-10-1.6-2.9-4.1-5.1-7.1-6.4-3-1.3-6.3-1.7-9.5-0.9-3.3 0.7-6.4 2.6-8.7 5.2-1 1.2-1.9 2.5-2.6 3.9l-4.8 10.2-8.5-7.4c-1.1-1-2.4-1.8-3.8-2.4-2.9-1.3-6.3-1.6-9.6-0.9-3.3 0.7-6.3 2.5-8.7 5.2-2.4 2.7-3.9 6-4.2 9.5-0.4 3.5 0.3 7 2 10 0.7 1.3 1.6 2.5 2.7 3.5l7.5 7.4-8.8 5.8c-1.3 0.8-2.4 1.8-3.5 3-2.3 2.6-3.9 6-4.2 9.6-0.4 3.5 0.3 6.9 2 9.9 1.6 2.9 4.1 5.1 7 6.5 3 1.3 6.4 1.7 9.6 0.9 1.5-0.3 3-0.9 4.3-1.7l10.3-6z" fill="#333333" p-id="1749"></path></svg>